<svg xmlns="http://www.w3.org/2000/svg" xmlns:xlink="http://www.w3.org/1999/xlink" width="140" height="60" xmlns:v="https://vecta.io/nano"><defs><path id="A" d="M0 0h73.484v42.318H0z"/><path id="B" d="M0 0h105.375v59.829H0z"/></defs><g fill-rule="evenodd"><path d="M125.546 18.095c.063-.932.853-2.008 2.286-2.008 1.58 0 2.245.994 2.286 2.008h-4.573zm2.245-4.245c-2.619 0-5.031 2.113-5.031 5.364 0 3.438 2.474 5.446 5.28 5.446 2.515 0 4.136-1.47 4.656-3.23l-2.307-.683c-.333.911-1.039 1.553-2.328 1.553-1.372 0-2.515-.974-2.577-2.32h7.316l.042-.849c0-3.272-1.892-5.281-5.051-5.281h0 0z" fill="#fffffe" fill-rule="nonzero"/><mask id="C" fill="#fff"><use xlink:href="#A"/></mask><g fill="#fffffe" fill-rule="nonzero"><path d="M65.6 36.449c.026-1.944 1.435-3.402 3.298-3.402 2.021 0 3.282 1.302 3.304 3.402H65.6zm7.868.897l.015-.61c0-2.885-1.809-4.75-4.607-4.75-2.276 0-4.631 1.92-4.631 5.134 0 3.572 2.535 5.198 4.892 5.198 1.93 0 3.5-.988 4.199-2.644l.023-.055-1.067-.368-.02.046c-.568 1.281-1.651 1.958-3.134 1.958-2.126 0-3.561-1.548-3.584-3.858h7.912l.003-.053h0l-.001.001zM14.876 0L-.022 25.816v5.653L18.138 0h-3.262" mask="url(#C)"/><path d="M57.492 22.144v-3.953h1.293c1.096 0 1.556.087 2.016.349.548.327.833.874.833 1.659 0 .698-.241 1.223-.724 1.55-.438.306-.92.394-1.95.394h-1.468v.001zm0-10.087h1.052c.855 0 1.468.087 1.885.284.526.262.876.895.876 1.637 0 1.354-.833 1.987-2.608 1.987h-1.205v-3.908h.001zm5.655 11.595c.942-.634 1.512-1.834 1.512-3.187 0-1.114-.373-2.009-1.052-2.621-.46-.415-.855-.589-1.732-.786.789-.262 1.117-.458 1.535-.873.614-.655.92-1.485.92-2.489 0-1.288-.505-2.402-1.403-3.078-.767-.567-1.928-.83-3.725-.83h-4.712V24.35h5.392c1.6 0 2.498-.196 3.265-.698h0v-.001zm76.525-9.761c-.614 0-1.205.175-1.644.48-.416.305-.615.612-.899 1.354v-1.485h-2.784v10.109h2.784v-4.869c0-.961.088-1.397.416-1.855.395-.568 1.096-.917 1.864-.917l.591.044v-2.838c-.153-.022-.263-.022-.329-.022m-35.934 19.866v-1.59h-1.187v9.981h1.187v-5.205c0-1.408.25-2.179.955-2.945.514-.552 1.145-.819 1.985-.841h.421v-1.161h-.486c-.755 0-1.516.245-2.038.657-.369.306-.577.575-.836 1.104"/><path d="M109.521 18.345c0-1.397.547-2.118 1.599-2.118 1.008 0 1.535.721 1.535 2.118v6.005h2.784v-6.092c0-1.288.592-2.031 1.622-2.031 1.052 0 1.555.655 1.555 2.031v6.092h2.783v-6.615c0-1.528-.197-2.227-.811-2.904-.57-.611-1.425-.939-2.455-.939-1.446 0-2.389.525-3.069 1.682-.482-1.092-1.446-1.682-2.761-1.682-1.293 0-2.148.503-2.783 1.615V14.24h-2.784v10.109h2.784v-6.005"/></g><mask id="D" fill="#fff"><use xlink:href="#B"/></mask><g fill="#fffffe" fill-rule="nonzero"><path d="M100.366 16.086c1.58 0 2.245.994 2.286 2.008H98.08c.063-.932.853-2.008 2.287-2.008h-.001zm.207 8.573c2.515 0 4.136-1.47 4.656-3.23l-2.307-.683c-.333.911-1.039 1.553-2.328 1.553-1.372 0-2.515-.974-2.577-2.32h7.317l.041-.849c0-3.272-1.892-5.281-5.051-5.281-2.619 0-5.03 2.113-5.03 5.364 0 3.438 2.474 5.446 5.28 5.446h0-.001zM31.383 0L-.022 54.193v5.635L31.383 5.635l6.618 11.42-24.756 42.772h3.265l14.878-25.707 6.613 11.411-8.256 14.296h3.263l8.258-14.298-8.246-14.228 8.246-14.246L31.383 0" mask="url(#D)"/><path d="M81.133 22.646c-.811 0-1.205-.393-1.337-1.266h-2.674c.109 2.096 1.577 3.318 3.988 3.318 2.366 0 3.945-1.31 3.945-3.275 0-1.637-.899-2.533-3.178-3.232-1.403-.436-1.425-.436-1.732-.677-.175-.131-.285-.393-.285-.655 0-.546.438-.916 1.117-.916.745 0 1.294.436 1.294 1.048v.175h2.63c-.066-2.053-1.468-3.275-3.792-3.275-2.366 0-3.923 1.288-3.923 3.209 0 1.595.986 2.576 3.178 3.232 1.49.458 1.885.743 1.885 1.354 0 .567-.46.96-1.117.96m9.182.001c-.811 0-1.205-.393-1.337-1.266h-2.674c.109 2.096 1.577 3.318 3.988 3.318 2.366 0 3.945-1.31 3.945-3.275 0-1.637-.899-2.533-3.178-3.232-1.403-.436-1.425-.436-1.732-.677-.175-.131-.285-.393-.285-.655 0-.546.438-.916 1.117-.916.745 0 1.293.436 1.293 1.048v.175h2.63c-.065-2.053-1.468-3.275-3.792-3.275-2.366 0-3.923 1.288-3.923 3.209 0 1.595.986 2.576 3.178 3.232 1.49.458 1.885.743 1.885 1.354 0 .567-.46.96-1.117.96m22.249 27.688c-.369.306-.578.575-.836 1.104v-1.589h-1.186v9.981h1.186v-5.205c0-1.408.25-2.179.955-2.945.513-.553 1.144-.82 1.984-.841h.422v-1.161h-.486c-.755 0-1.516.245-2.038.656m-22.291-8.257v-.959l-.039-.063-.073.025c-.398.137-.816.206-1.236.205-.92 0-1.407-.577-1.407-1.668v-6.422h2.621v-1.029h-2.621v-2.395h-1.185v2.395h-1.474v1.028h1.474v6.497c0 1.665.924 2.62 2.534 2.62.65 0 1.046-.108 1.369-.221l.036-.014m-2.902 16.684a3.77 3.77 0 0 1-1.235.205c-.92 0-1.407-.577-1.407-1.669v-6.422h2.621v-1.027h-2.621V47.45h-1.185v2.395h-1.474v1.027h1.474v6.497c0 1.665.924 2.62 2.535 2.62.466.01.929-.065 1.368-.221l.036-.013v-.959l-.04-.063-.073.024m6.832-9.082a4.41 4.41 0 0 0-3.425 1.555v-1.385h-1.187v9.981h1.187v-6.106c0-.936.19-1.433.782-2.044.568-.587 1.169-.952 2.401-.952l.191.003c1.162.035 2.402.747 2.396 2.648v6.45h1.188v-6.482c.026-1.098-.284-1.985-.922-2.635s-1.612-1.035-2.612-1.035m6.174-17.51H99.19v6.073c0 1.017-.164 1.576-.603 2.063-.508.554-1.377.912-2.215.912-1.685 0-2.816-1.195-2.816-2.974l.001-6.073h-1.185v6.073c0 2.441 1.617 4.081 4.025 4.081 1.117 0 2.165-.415 2.947-1.169.76-.71 1.028-1.472 1.028-2.912v-6.073m-18.096 9.98h1.187v-6.483c.026-1.098-.284-1.985-.921-2.635s-1.611-1.035-2.612-1.035c-1.358 0-2.54.537-3.425 1.556v-1.385h-1.186v9.981h1.186v-6.106c0-.936.19-1.433.782-2.044.568-.587 1.168-.951 2.401-.951l.191.003c1.162.035 2.403.747 2.397 2.648v6.45m18.548 11.985c.026-1.944 1.435-3.402 3.297-3.402 2.021 0 3.283 1.302 3.304 3.402h-6.601zm3.275-4.463c-2.276 0-4.631 1.92-4.631 5.134 0 3.572 2.535 5.198 4.891 5.198 1.93 0 3.5-.988 4.2-2.644l.023-.054-1.068-.368-.021.046c-.568 1.281-1.651 1.958-3.134 1.958-2.126 0-3.561-1.548-3.584-3.858h7.912l.003-.052.015-.61c0-2.885-1.809-4.75-4.607-4.75h0l.001-.001zM59.55 42.147l5.228-14.301-1.306-.038-4.451 12.296-4.277-12.257-1.347-.02 5.088 14.32h1.065m2.285 9.49a2.87 2.87 0 0 1-1.525 1.103c-.512.183-1.086.257-1.985.257l-2.203-.014V46.61h1.795c1.039 0 1.658.064 2.285.236 1.358.386 2.202 1.515 2.202 2.945.006.659-.193 1.303-.569 1.844h0zm.344-5.078c-.869-.693-2.115-1.029-3.809-1.029l-3.462-.015-.015 14.315h1.23l.015-5.751h2.426c1.64 0 2.675-.263 3.464-.878.998-.762 1.571-2.011 1.571-3.428 0-1.331-.504-2.472-1.419-3.214h0-.001zm50.176-13.51c2.02 0 3.282 1.302 3.304 3.402h-6.601c.026-1.944 1.435-3.402 3.297-3.402zm4.461 6.573l-1.068-.368-.021.046c-.568 1.281-1.651 1.958-3.134 1.958-2.126 0-3.561-1.548-3.584-3.858h7.912l.003-.053.015-.61c0-2.885-1.809-4.75-4.607-4.75-2.276 0-4.631 1.92-4.631 5.134 0 3.572 2.535 5.198 4.891 5.198 1.93 0 3.499-.988 4.2-2.644l.023-.055h0l.001.001zM78.087 50.333c-.37.306-.578.575-.836 1.104v-1.589h-1.186v9.981h1.187v-5.205c0-1.409.25-2.18.955-2.945.514-.553 1.145-.82 1.985-.841h.421v-1.161h-.486c-.755 0-1.517.245-2.037.656m41.876 3.873c-1.81-.446-2.305-.841-2.305-1.835 0-.985.813-1.597 2.12-1.597 1.375 0 2.164.629 2.164 1.726v.055h1.233l-.003-.057c-.088-1.766-1.348-2.82-3.373-2.82-1.985 0-3.372 1.135-3.372 2.758 0 .715.329 1.446.858 1.907.509.464 1.135.74 2.307 1.022 1.775.42 2.435.935 2.435 1.899 0 .995-.869 1.662-2.163 1.662-1.446 0-2.36-.711-2.444-1.901l-.004-.052h-1.212l.007.061c.216 1.969 1.431 2.967 3.608 2.967 2.055 0 3.436-1.1 3.436-2.738a2.78 2.78 0 0 0-.79-1.905c-.508-.527-1.163-.829-2.504-1.152M70.94 16.086c1.579 0 2.245.994 2.286 2.008h-4.573c.062-.932.852-2.008 2.286-2.008zm2.556 4.66c-.333.911-1.04 1.553-2.328 1.553-1.372 0-2.515-.974-2.577-2.32h7.316l.042-.849c0-3.272-1.892-5.281-5.051-5.281-2.619 0-5.03 2.113-5.03 5.364 0 3.438 2.474 5.446 5.28 5.446 2.515 0 4.136-1.47 4.656-3.23l-2.307-.683h0-.001zm-4.64 38.137c-1.945 0-3.413-1.711-3.413-3.979 0-1.056.318-2.1.873-2.865.632-.86 1.435-1.244 2.605-1.244 2.157 0 3.606 1.565 3.606 3.893 0 2.313-1.647 4.195-3.671 4.195h-.001zm3.649-7.326c-.937-1.265-2.141-1.879-3.671-1.879-2.721 0-4.621 2.123-4.621 5.161 0 2.992 1.953 5.163 4.644 5.163 1.504 0 2.668-.708 3.649-2.225v2.053h1.187v-9.981h-1.187v1.708h0-.001z"/></g></g></svg>