<svg id="svg" version="1.1" xmlns="http://www.w3.org/2000/svg" xmlns:xlink="http://www.w3.org/1999/xlink" width="400" height="400" viewBox="0, 0, 400,400"><g id="svgg"><path id="path0" d="M72.434 1.161 C 72.538 1.799,72.475 2.412,72.295 2.524 C 72.092 2.649,72.132 2.929,72.400 3.260 C 72.725 3.661,72.729 3.732,72.417 3.544 C 72.104 3.356,71.990 3.777,71.962 5.230 C 71.870 9.840,71.822 10.595,71.627 10.475 C 71.514 10.405,71.418 10.832,71.414 11.424 C 71.407 12.668,71.265 13.312,70.856 13.968 C 70.647 14.302,70.684 14.362,70.983 14.177 C 71.264 14.004,71.239 14.179,70.907 14.709 C 70.635 15.144,70.451 15.875,70.499 16.333 C 70.547 16.792,70.389 17.393,70.147 17.670 C 69.906 17.946,69.635 18.581,69.544 19.081 C 69.454 19.580,69.285 20.141,69.170 20.328 C 69.055 20.514,69.148 20.667,69.377 20.667 C 69.607 20.667,69.503 20.887,69.147 21.156 C 68.791 21.425,68.631 21.650,68.791 21.656 C 68.951 21.662,68.895 21.892,68.667 22.167 C 68.438 22.442,68.347 22.667,68.464 22.667 C 68.580 22.667,68.461 23.179,68.200 23.806 C 67.938 24.433,67.822 25.044,67.942 25.164 C 68.063 25.285,67.914 25.522,67.612 25.691 C 67.271 25.882,67.128 26.252,67.237 26.666 C 67.338 27.054,67.247 27.333,67.019 27.333 C 66.804 27.333,66.710 27.468,66.812 27.632 C 66.913 27.796,66.755 28.023,66.460 28.136 C 66.121 28.266,65.988 28.584,66.098 29.005 C 66.193 29.369,66.173 29.610,66.052 29.540 C 65.932 29.469,65.592 29.915,65.297 30.530 C 64.997 31.154,64.924 31.568,65.130 31.466 C 65.333 31.366,65.209 31.520,64.853 31.809 C 64.497 32.097,64.347 32.336,64.520 32.338 C 64.699 32.341,64.690 32.449,64.500 32.589 C 63.910 33.023,62.990 35.048,63.217 35.414 C 63.346 35.624,63.279 35.672,63.052 35.532 C 62.814 35.385,62.667 35.527,62.667 35.900 C 62.667 36.234,62.367 36.694,62.000 36.923 C 61.633 37.152,61.333 37.516,61.333 37.733 C 61.333 37.950,61.567 37.836,61.852 37.480 C 62.355 36.852,62.360 36.854,62.028 37.544 C 61.839 37.935,61.440 38.349,61.141 38.464 C 60.812 38.590,60.677 38.880,60.800 39.200 C 60.933 39.548,60.782 39.786,60.358 39.897 C 59.636 40.086,59.216 40.875,59.550 41.415 C 59.679 41.624,59.612 41.672,59.386 41.533 C 59.157 41.391,58.846 41.639,58.615 42.148 C 58.401 42.617,58.100 43.000,57.946 43.000 C 57.793 43.000,57.667 43.209,57.667 43.464 C 57.667 43.720,57.432 44.019,57.146 44.129 C 56.859 44.239,56.720 44.483,56.837 44.673 C 56.954 44.862,56.860 44.975,56.628 44.925 C 56.396 44.875,56.145 45.115,56.071 45.458 C 55.996 45.802,55.203 46.793,54.308 47.660 C 53.413 48.527,52.778 49.333,52.896 49.452 C 53.014 49.570,52.956 49.667,52.767 49.667 C 52.314 49.667,47.142 54.733,47.250 55.072 C 47.296 55.216,47.221 55.316,47.083 55.294 C 46.314 55.172,45.949 55.385,46.127 55.851 C 46.236 56.135,46.191 56.285,46.026 56.183 C 45.861 56.081,45.309 56.439,44.799 56.979 C 44.290 57.519,43.774 57.900,43.653 57.825 C 43.533 57.751,43.118 57.985,42.731 58.345 C 42.344 58.705,41.880 59.000,41.700 59.000 C 41.519 59.000,41.162 59.299,40.906 59.665 C 40.650 60.030,40.364 60.253,40.271 60.160 C 40.178 60.067,39.559 60.423,38.895 60.951 C 38.231 61.478,37.758 61.980,37.844 62.066 C 37.930 62.152,37.804 62.222,37.564 62.222 C 36.723 62.222,34.026 63.772,34.233 64.136 C 34.347 64.336,34.319 64.390,34.171 64.256 C 33.901 64.012,31.265 65.278,31.055 65.752 C 30.993 65.891,30.814 65.924,30.657 65.827 C 30.499 65.730,29.424 66.094,28.268 66.637 C 27.112 67.179,25.755 67.724,25.252 67.847 C 24.749 67.970,24.424 68.211,24.530 68.382 C 24.641 68.562,24.378 68.607,23.909 68.489 C 23.429 68.369,22.906 68.465,22.631 68.726 C 22.376 68.968,21.867 69.211,21.500 69.266 C 21.133 69.320,20.608 69.457,20.333 69.570 C 20.058 69.683,19.608 69.805,19.333 69.841 C 18.141 69.998,16.640 70.440,16.493 70.678 C 16.405 70.821,16.043 70.862,15.688 70.769 C 15.334 70.676,14.547 70.757,13.939 70.949 C 13.331 71.141,12.037 71.380,11.065 71.481 C 10.092 71.581,8.986 71.829,8.608 72.032 C 8.081 72.313,7.978 72.305,8.168 71.998 C 8.350 71.703,8.206 71.664,7.625 71.855 C 7.190 71.997,6.547 72.096,6.197 72.074 C 5.847 72.052,5.266 72.191,4.907 72.383 C 4.437 72.635,4.317 72.630,4.479 72.367 C 4.604 72.165,4.547 72.000,4.353 72.000 C 4.159 72.000,3.998 72.188,3.995 72.417 C 3.991 72.706,3.897 72.687,3.687 72.355 C 3.424 71.939,3.307 71.939,2.795 72.355 C 2.279 72.774,2.240 72.771,2.485 72.333 C 2.712 71.927,2.681 71.911,2.316 72.250 C 1.808 72.722,1.202 72.816,1.470 72.381 C 1.567 72.225,1.276 72.167,0.823 72.254 L -0.000 72.411 -0.000 145.039 L 0.000 217.667 17.999 217.667 L 35.999 217.667 36.083 308.417 L 36.167 399.167 95.333 399.167 L 154.500 399.167 154.573 385.000 L 154.646 370.833 109.740 370.833 L 64.833 370.833 64.665 280.167 C 64.573 230.300,64.460 189.463,64.415 189.417 C 64.370 189.371,56.308 189.333,46.500 189.333 L 28.667 189.333 28.667 142.833 L 28.667 96.333 29.353 96.333 C 29.730 96.333,29.970 96.221,29.886 96.083 C 29.802 95.946,30.506 95.796,31.450 95.750 C 32.394 95.704,33.542 95.518,34.000 95.336 C 34.458 95.154,35.133 94.963,35.500 94.910 C 35.867 94.857,36.385 94.678,36.652 94.512 C 36.918 94.346,37.562 94.163,38.082 94.106 C 38.603 94.049,39.509 93.746,40.097 93.433 C 40.686 93.119,41.279 92.894,41.417 92.931 C 41.554 92.969,41.669 92.813,41.672 92.583 C 41.675 92.301,41.777 92.325,41.987 92.657 C 42.256 93.082,42.325 93.076,42.504 92.611 C 42.637 92.264,42.968 92.130,43.438 92.232 C 43.961 92.346,44.041 92.302,43.723 92.076 C 43.403 91.849,43.660 91.700,44.640 91.543 C 45.388 91.423,46.000 91.182,46.000 91.007 C 46.000 90.831,46.225 90.774,46.500 90.879 C 46.775 90.985,47.000 90.935,47.000 90.769 C 47.000 90.603,47.527 90.277,48.172 90.044 C 48.816 89.810,49.266 89.494,49.171 89.341 C 49.077 89.188,49.306 89.142,49.680 89.240 C 50.146 89.362,50.331 89.273,50.264 88.959 C 50.203 88.673,50.399 88.540,50.783 88.606 C 51.150 88.668,51.312 88.568,51.183 88.359 C 51.051 88.146,51.168 88.085,51.480 88.205 C 51.784 88.322,52.079 88.182,52.202 87.862 C 52.316 87.565,52.580 87.350,52.788 87.385 C 53.382 87.485,54.999 86.601,54.803 86.285 C 54.706 86.128,54.920 86.000,55.278 86.000 C 55.636 86.000,56.019 85.765,56.129 85.479 C 56.239 85.192,56.480 85.051,56.664 85.165 C 56.849 85.279,57.000 85.144,57.000 84.863 C 57.000 84.560,57.192 84.428,57.475 84.537 C 57.754 84.644,58.182 84.365,58.512 83.862 C 58.820 83.391,59.208 83.089,59.372 83.191 C 59.537 83.292,59.761 83.141,59.871 82.854 C 59.981 82.568,60.286 82.333,60.547 82.333 C 61.209 82.333,62.696 81.317,62.499 80.999 C 62.411 80.855,62.712 80.644,63.169 80.529 C 63.626 80.414,64.000 80.107,64.000 79.847 C 64.000 79.586,64.173 79.266,64.385 79.135 C 64.646 78.973,64.679 79.047,64.488 79.365 C 64.130 79.958,65.070 79.282,66.366 78.014 C 66.842 77.548,67.667 76.836,68.199 76.432 C 69.917 75.127,72.169 72.919,72.083 72.622 C 72.037 72.463,72.128 72.333,72.284 72.333 C 72.629 72.333,74.655 70.433,74.488 70.266 C 74.423 70.201,74.811 69.852,75.351 69.490 C 75.890 69.129,76.332 68.682,76.332 68.497 C 76.333 68.312,76.639 67.969,77.013 67.736 C 77.387 67.503,77.603 67.166,77.493 66.989 C 77.384 66.812,77.453 66.667,77.647 66.667 C 77.841 66.667,78.002 66.404,78.005 66.083 C 78.009 65.645,78.079 65.609,78.287 65.937 C 78.494 66.263,78.719 66.136,79.176 65.437 C 79.513 64.921,79.988 64.300,80.231 64.056 C 80.474 63.813,80.572 63.438,80.450 63.223 C 80.327 63.009,80.348 62.944,80.498 63.079 C 80.825 63.375,82.331 61.417,82.338 60.685 C 82.343 60.229,82.382 60.227,82.667 60.667 C 82.844 60.942,82.992 61.002,82.995 60.801 C 82.998 60.600,83.297 60.093,83.660 59.675 C 84.023 59.256,84.224 58.760,84.108 58.572 C 83.990 58.380,84.060 58.331,84.268 58.459 C 84.693 58.722,85.769 56.880,85.403 56.514 C 85.273 56.384,85.373 56.328,85.625 56.389 C 85.877 56.450,86.159 56.292,86.252 56.037 C 86.364 55.726,86.279 55.661,85.992 55.838 C 85.711 56.012,85.646 55.970,85.802 55.718 C 85.932 55.507,86.228 55.333,86.458 55.333 C 86.940 55.333,88.159 53.055,88.037 52.383 C 87.992 52.136,88.105 52.025,88.287 52.138 C 88.469 52.251,88.715 52.041,88.832 51.672 C 88.949 51.302,89.197 51.000,89.384 51.000 C 89.570 51.000,89.661 50.816,89.586 50.591 C 89.511 50.365,89.723 49.887,90.058 49.528 C 90.393 49.168,90.667 48.664,90.667 48.406 C 90.667 48.149,90.967 47.557,91.333 47.091 C 91.700 46.625,92.000 46.039,92.000 45.788 C 92.000 45.538,92.131 45.333,92.292 45.333 C 92.452 45.333,92.673 44.883,92.784 44.332 C 92.894 43.781,93.010 43.218,93.042 43.082 C 93.074 42.945,93.340 42.651,93.634 42.427 C 93.983 42.161,94.023 42.018,93.750 42.011 C 93.503 42.004,93.621 41.712,94.039 41.294 C 94.609 40.724,94.657 40.532,94.289 40.299 C 93.929 40.071,93.925 40.009,94.270 40.005 C 94.510 40.002,94.613 39.850,94.500 39.667 C 94.387 39.483,94.469 39.333,94.683 39.333 C 94.896 39.333,94.985 39.108,94.879 38.833 C 94.774 38.558,94.821 38.333,94.984 38.333 C 95.245 38.333,95.782 36.750,95.833 35.833 C 95.843 35.650,95.968 35.313,96.112 35.083 C 96.255 34.854,96.276 34.510,96.158 34.319 C 96.039 34.127,96.084 33.790,96.256 33.569 C 96.742 32.946,97.351 30.950,96.987 31.175 C 96.811 31.284,96.667 31.223,96.667 31.039 C 96.667 30.856,96.799 30.624,96.960 30.525 C 97.361 30.277,97.645 28.667,97.287 28.667 C 97.129 28.667,97.000 28.511,97.000 28.322 C 97.000 28.084,97.201 28.084,97.645 28.322 C 98.089 28.559,145.408 28.641,248.729 28.584 L 399.167 28.500 399.254 14.250 L 399.340 -0.000 235.793 -0.000 L 72.246 0.000 72.434 1.161 M57.833 189.758 C 61.317 189.808,56.029 189.883,46.083 189.924 C 36.137 189.966,28.000 189.887,28.000 189.750 C 28.000 189.523,41.560 189.527,57.833 189.758 M8.726 218.250 C 13.618 218.302,21.718 218.302,26.726 218.250 C 31.735 218.198,27.733 218.155,17.833 218.155 C 7.933 218.155,3.835 218.198,8.726 218.250 M299.167 284.350 C 298.725 284.529,298.669 284.629,299.000 284.648 C 299.423 284.672,299.427 284.723,299.030 284.974 C 298.772 285.138,298.392 285.207,298.185 285.128 C 297.693 284.939,296.333 286.216,296.333 286.866 C 296.333 287.168,296.176 287.275,295.943 287.132 C 295.683 286.971,295.623 287.071,295.762 287.435 C 295.877 287.734,295.814 288.075,295.623 288.194 C 295.432 288.312,295.349 288.692,295.440 289.038 C 295.530 289.384,295.468 289.584,295.302 289.481 C 295.136 289.378,295.000 289.444,295.000 289.627 C 295.000 289.811,295.150 290.053,295.333 290.167 C 295.517 290.280,295.664 290.551,295.662 290.770 C 295.658 291.013,295.521 290.974,295.306 290.667 C 295.040 290.286,295.012 290.365,295.189 291.000 C 295.317 291.458,295.553 291.884,295.713 291.945 C 295.873 292.007,295.920 292.194,295.816 292.361 C 295.610 292.695,296.652 294.641,297.072 294.708 C 297.216 294.731,297.477 294.769,297.652 294.792 C 297.828 294.815,298.180 295.118,298.435 295.467 C 299.005 296.246,304.306 296.764,303.830 295.994 C 303.630 295.672,303.787 295.624,304.478 295.798 C 305.075 295.948,305.315 295.907,305.175 295.680 C 304.988 295.377,305.436 295.187,305.798 295.417 C 306.017 295.555,307.312 294.274,307.237 293.994 C 307.198 293.850,307.317 293.709,307.500 293.680 C 308.285 293.555,309.029 288.333,308.262 288.333 C 308.118 288.333,308.018 288.221,308.039 288.083 C 308.158 287.330,307.957 286.654,307.667 286.833 C 307.483 286.947,307.333 286.829,307.333 286.571 C 307.333 285.920,306.216 284.975,305.371 284.911 C 304.983 284.882,304.667 284.765,304.667 284.651 C 304.667 284.222,300.100 283.972,299.167 284.350 M258.000 311.167 L 258.000 336.333 264.000 336.333 L 270.000 336.333 270.000 326.840 L 270.000 317.346 270.750 317.160 C 271.162 317.057,275.286 317.017,279.913 317.070 C 286.680 317.148,288.360 317.080,288.497 316.723 C 288.590 316.479,288.667 314.259,288.667 311.791 L 288.667 307.304 279.250 307.402 L 269.833 307.500 270.000 301.500 L 270.167 295.500 279.769 295.431 L 289.372 295.363 289.436 290.681 L 289.500 286.000 273.750 286.000 L 258.000 286.000 258.000 311.167 M380.258 295.293 L 380.167 300.085 377.731 300.126 L 375.295 300.167 375.231 304.731 L 375.167 309.295 377.761 309.231 L 380.356 309.167 380.321 316.577 C 380.302 320.652,380.395 324.163,380.528 324.378 C 380.674 324.615,380.626 324.681,380.407 324.546 C 380.175 324.402,380.054 324.679,380.073 325.316 C 380.088 325.863,380.207 326.245,380.336 326.165 C 380.466 326.085,380.529 326.615,380.477 327.343 C 380.426 328.071,380.495 328.667,380.631 328.667 C 380.767 328.667,380.879 329.095,380.879 329.618 C 380.879 330.730,381.617 332.667,382.040 332.667 C 382.202 332.667,382.333 332.868,382.333 333.115 C 382.333 333.362,382.668 333.849,383.078 334.198 C 383.557 334.608,383.705 334.651,383.494 334.320 C 383.314 334.038,383.556 334.249,384.033 334.788 C 384.509 335.327,385.059 335.670,385.254 335.549 C 385.450 335.428,385.663 335.488,385.728 335.683 C 385.792 335.877,386.143 336.092,386.506 336.159 C 386.869 336.227,387.167 336.313,387.167 336.350 C 387.167 336.436,388.556 336.683,389.692 336.801 C 390.165 336.849,390.750 337.012,390.994 337.163 C 391.289 337.345,391.357 337.308,391.198 337.052 C 391.056 336.821,391.177 336.667,391.500 336.667 C 391.797 336.667,391.947 336.817,391.833 337.000 C 391.599 337.379,392.099 337.457,392.459 337.097 C 392.589 336.967,393.305 336.905,394.051 336.958 C 394.797 337.012,395.326 336.925,395.227 336.764 C 395.127 336.603,395.371 336.447,395.769 336.417 C 396.341 336.374,396.389 336.428,395.996 336.676 C 395.183 337.190,395.952 337.042,397.053 336.472 C 397.659 336.159,397.975 336.105,397.830 336.339 C 397.644 336.639,397.754 336.643,398.293 336.355 C 398.682 336.147,399.000 336.068,399.000 336.179 C 399.000 336.290,399.214 336.167,399.476 335.905 C 400.008 335.373,400.043 332.333,399.517 332.333 C 399.343 332.333,399.362 332.172,399.559 331.974 C 399.790 331.743,399.821 331.182,399.644 330.400 C 399.493 329.732,399.436 329.120,399.516 329.040 C 399.595 328.960,399.475 328.665,399.247 328.383 C 398.917 327.975,398.918 327.923,399.250 328.122 C 399.701 328.394,399.785 328.030,399.464 327.194 C 399.246 326.624,398.333 326.459,398.333 326.990 C 398.333 327.167,398.116 327.229,397.849 327.127 C 397.583 327.025,397.171 327.062,396.933 327.211 C 396.287 327.614,395.635 327.655,395.868 327.277 C 395.981 327.095,395.794 326.975,395.453 327.011 C 394.205 327.143,393.648 326.986,393.102 326.348 C 392.546 325.699,392.397 325.253,392.207 323.667 C 392.152 323.208,392.005 322.604,391.879 322.323 C 391.754 322.042,391.692 318.979,391.742 315.515 L 391.833 309.218 395.833 309.298 L 399.833 309.379 399.769 304.773 L 399.705 300.167 396.019 300.167 L 392.333 300.167 392.328 295.667 C 392.322 290.030,392.889 290.500,386.092 290.500 L 380.350 290.500 380.258 295.293 M391.914 297.917 C 391.850 299.154,391.797 298.142,391.797 295.667 C 391.797 293.192,391.850 292.179,391.914 293.417 C 391.978 294.654,391.978 296.679,391.914 297.917 M334.667 299.766 C 334.667 299.916,334.521 299.949,334.343 299.839 C 334.165 299.729,333.608 299.908,333.106 300.236 C 332.603 300.565,332.299 300.660,332.430 300.448 C 332.590 300.188,332.450 300.119,332.000 300.237 C 331.634 300.333,331.333 300.544,331.333 300.706 C 331.333 300.867,331.136 301.000,330.896 301.000 C 330.452 301.000,328.574 302.773,328.634 303.136 C 328.652 303.244,328.367 303.633,328.000 304.000 L 327.333 304.667 327.287 303.917 C 327.262 303.504,327.207 302.792,327.166 302.333 C 327.125 301.875,327.071 301.159,327.046 300.742 L 327.000 299.984 321.250 300.075 L 315.500 300.167 315.500 318.167 L 315.500 336.167 321.431 336.258 L 327.363 336.349 327.265 326.841 C 327.211 321.611,327.289 317.333,327.438 317.333 C 327.587 317.333,327.676 317.071,327.637 316.750 C 327.598 316.429,327.720 315.792,327.908 315.333 C 328.124 314.807,328.132 314.425,327.930 314.296 C 327.754 314.184,327.858 313.998,328.160 313.882 C 328.462 313.766,328.613 313.517,328.496 313.327 C 328.379 313.138,328.407 313.023,328.559 313.070 C 328.897 313.177,331.017 311.128,330.797 310.908 C 330.709 310.820,330.869 310.660,331.152 310.552 C 331.435 310.443,331.667 310.518,331.667 310.718 C 331.667 310.955,331.812 310.972,332.083 310.766 C 332.313 310.593,333.175 310.410,333.999 310.361 C 334.824 310.311,335.635 310.186,335.801 310.084 C 335.970 309.979,335.986 310.086,335.837 310.327 C 335.636 310.653,335.827 310.719,336.634 310.600 C 337.218 310.515,337.773 310.569,337.868 310.722 C 337.962 310.875,338.360 311.000,338.753 311.000 C 339.282 311.000,339.370 310.903,339.091 310.624 C 338.833 310.367,338.816 309.984,339.036 309.405 C 339.212 308.941,339.290 308.135,339.207 307.614 C 339.125 307.093,339.211 306.667,339.398 306.667 C 339.591 306.667,339.634 306.414,339.499 306.083 C 339.125 305.168,339.100 304.205,339.439 303.749 C 339.610 303.520,339.658 302.875,339.547 302.316 C 339.435 301.757,339.466 301.376,339.615 301.468 C 339.764 301.560,339.859 301.305,339.825 300.901 C 339.787 300.444,339.556 300.184,339.215 300.213 C 338.913 300.238,338.667 300.114,338.667 299.936 C 338.667 299.748,338.232 299.709,337.625 299.842 C 337.011 299.977,336.662 299.944,336.774 299.762 C 336.879 299.592,336.448 299.462,335.816 299.473 C 335.184 299.484,334.667 299.616,334.667 299.766 M355.167 299.601 C 354.800 299.677,354.284 299.910,354.019 300.119 C 353.649 300.412,353.596 300.404,353.789 300.083 C 353.948 299.819,353.843 299.667,353.500 299.667 C 353.176 299.667,353.056 299.821,353.199 300.053 C 353.363 300.317,353.210 300.379,352.713 300.249 C 352.314 300.145,351.802 300.246,351.574 300.473 C 351.347 300.701,350.975 300.825,350.747 300.749 C 350.519 300.673,350.333 300.769,350.333 300.962 C 350.333 301.155,350.108 301.226,349.833 301.121 C 349.558 301.015,349.333 301.095,349.333 301.298 C 349.333 301.501,349.177 301.667,348.987 301.667 C 348.422 301.667,346.678 303.082,346.866 303.386 C 346.961 303.541,346.880 303.667,346.686 303.667 C 346.492 303.667,346.331 303.929,346.328 304.250 C 346.325 304.668,346.248 304.715,346.058 304.415 C 345.875 304.128,345.564 304.425,345.063 305.363 C 344.661 306.115,344.411 306.855,344.505 307.009 C 344.600 307.162,344.539 307.373,344.370 307.477 C 344.201 307.582,344.137 308.005,344.227 308.417 C 344.347 308.967,344.305 309.045,344.068 308.710 C 343.833 308.378,343.702 308.650,343.589 309.710 C 343.503 310.511,343.549 311.297,343.690 311.457 C 343.832 311.617,343.868 311.957,343.770 312.212 C 343.672 312.467,343.772 312.892,343.991 313.156 C 344.211 313.421,344.292 313.798,344.171 313.993 C 343.920 314.399,344.689 316.333,345.101 316.333 C 345.250 316.333,345.294 316.461,345.198 316.616 C 345.101 316.772,345.388 317.095,345.833 317.333 C 346.279 317.572,346.575 317.878,346.491 318.014 C 346.187 318.507,350.847 321.130,351.549 320.861 C 351.797 320.765,352.000 320.808,352.000 320.956 C 352.000 321.341,355.969 322.392,356.405 322.122 C 356.615 321.993,356.675 322.050,356.547 322.258 C 356.335 322.600,356.852 322.875,358.223 323.151 C 359.279 323.363,360.667 324.221,360.412 324.503 C 360.277 324.651,360.422 324.682,360.733 324.570 C 361.121 324.431,361.245 324.509,361.127 324.817 C 361.032 325.064,361.109 325.361,361.298 325.478 C 361.517 325.614,361.533 325.975,361.342 326.478 C 361.177 326.911,361.145 327.379,361.271 327.519 C 361.397 327.659,361.313 327.666,361.083 327.534 C 360.854 327.402,360.667 327.435,360.667 327.607 C 360.667 328.494,356.837 329.118,355.042 328.524 C 354.423 328.319,354.308 328.361,354.516 328.714 C 354.662 328.963,354.471 328.895,354.092 328.563 C 353.646 328.173,353.358 328.093,353.276 328.337 C 353.198 328.571,352.346 328.261,351.043 327.524 C 349.884 326.869,348.823 326.333,348.686 326.333 C 348.466 326.333,347.958 325.960,346.436 324.678 C 346.162 324.447,345.877 324.504,345.519 324.862 C 344.936 325.445,344.827 325.813,345.330 325.502 C 345.518 325.386,345.575 325.519,345.461 325.814 C 345.352 326.098,345.131 326.247,344.968 326.147 C 344.806 326.047,344.419 326.497,344.108 327.149 C 343.797 327.800,343.421 328.333,343.272 328.333 C 343.122 328.333,343.000 328.558,343.000 328.833 C 343.000 329.108,342.869 329.333,342.708 329.333 C 342.548 329.333,342.325 329.793,342.212 330.355 C 342.099 330.923,341.858 331.285,341.671 331.169 C 341.485 331.054,341.333 331.114,341.333 331.302 C 341.333 331.490,341.671 331.822,342.083 332.041 C 342.496 332.260,343.029 332.715,343.269 333.053 C 343.508 333.390,343.996 333.667,344.352 333.667 C 344.709 333.667,345.000 333.781,345.000 333.920 C 345.000 334.059,345.316 334.370,345.702 334.611 C 346.283 334.974,346.364 334.973,346.177 334.608 C 346.052 334.365,346.175 334.442,346.449 334.778 C 346.724 335.115,347.560 335.472,348.307 335.572 C 349.055 335.672,349.667 335.885,349.667 336.044 C 349.667 336.203,349.779 336.310,349.917 336.280 C 350.054 336.251,350.392 336.313,350.667 336.417 C 351.812 336.853,352.663 336.930,352.446 336.579 C 352.296 336.336,352.431 336.312,352.862 336.504 C 353.213 336.660,353.965 336.813,354.533 336.843 C 355.101 336.873,355.761 337.019,356.001 337.167 C 356.289 337.345,356.356 337.306,356.198 337.052 C 356.047 336.807,356.218 336.667,356.667 336.667 C 357.055 336.667,357.296 336.791,357.202 336.943 C 357.108 337.095,357.361 337.183,357.765 337.138 C 358.169 337.092,358.500 337.033,358.500 337.005 C 358.500 336.977,359.163 336.895,359.973 336.822 C 360.784 336.749,361.553 336.517,361.683 336.307 C 361.858 336.024,361.955 336.031,362.055 336.330 C 362.150 336.617,362.794 336.466,364.250 335.817 C 365.383 335.312,366.250 334.801,366.176 334.682 C 366.103 334.564,366.349 334.276,366.723 334.042 C 367.281 333.693,367.363 333.696,367.177 334.059 C 367.052 334.301,367.166 334.237,367.429 333.917 C 367.692 333.596,368.083 333.333,368.298 333.333 C 368.513 333.333,368.999 332.808,369.378 332.167 C 369.756 331.525,370.164 331.000,370.285 331.000 C 370.612 331.000,371.400 329.078,371.453 328.148 C 371.479 327.700,371.589 327.334,371.697 327.334 C 372.096 327.333,371.810 322.548,371.402 322.412 C 371.181 322.338,371.000 322.131,371.000 321.953 C 371.000 321.774,371.188 321.740,371.417 321.878 C 371.700 322.048,371.687 321.947,371.376 321.564 C 371.124 321.254,371.016 321.000,371.134 321.000 C 371.253 321.000,371.115 320.545,370.828 319.989 C 370.524 319.402,370.149 319.074,369.934 319.207 C 369.709 319.347,369.657 319.285,369.803 319.049 C 370.065 318.625,369.207 317.570,368.873 317.905 C 368.760 318.018,368.667 317.845,368.667 317.520 C 368.667 317.123,368.497 316.994,368.149 317.127 C 367.850 317.242,367.719 317.185,367.837 316.993 C 368.070 316.616,366.660 315.983,366.198 316.257 C 366.033 316.356,365.994 316.279,366.113 316.086 C 366.358 315.690,365.434 315.232,364.970 315.519 C 364.803 315.622,364.667 315.531,364.667 315.317 C 364.667 315.103,364.435 315.018,364.149 315.127 C 363.814 315.256,363.715 315.191,363.868 314.944 C 364.029 314.684,363.874 314.622,363.385 314.750 C 362.990 314.853,362.667 314.806,362.667 314.646 C 362.667 314.486,362.461 314.433,362.210 314.530 C 361.958 314.626,361.659 314.462,361.545 314.165 C 361.431 313.868,361.180 313.722,360.988 313.841 C 360.795 313.960,360.421 313.878,360.156 313.658 C 359.892 313.438,359.453 313.344,359.182 313.448 C 358.910 313.552,358.598 313.492,358.488 313.313 C 358.377 313.135,358.148 313.075,357.977 313.181 C 357.806 313.286,357.667 313.231,357.667 313.059 C 357.667 312.749,356.590 312.273,355.721 312.200 C 355.476 312.179,355.087 311.903,354.855 311.586 C 354.624 311.269,354.356 311.088,354.261 311.183 C 354.166 311.279,354.161 310.976,354.250 310.512 C 354.347 310.001,354.258 309.667,354.025 309.667 C 353.813 309.667,354.021 309.256,354.487 308.753 C 354.952 308.251,355.333 307.726,355.333 307.587 C 355.333 307.447,355.492 307.333,355.686 307.333 C 355.880 307.333,355.937 307.499,355.811 307.702 C 355.654 307.958,355.827 307.991,356.375 307.811 C 356.810 307.668,357.512 307.576,357.935 307.607 C 358.467 307.645,358.627 307.535,358.454 307.248 C 358.262 306.928,358.325 306.930,358.727 307.256 C 359.014 307.488,359.517 307.575,359.846 307.449 C 360.256 307.292,360.367 307.342,360.202 307.610 C 360.069 307.825,360.120 308.000,360.314 308.000 C 360.508 308.000,360.669 307.813,360.672 307.583 C 360.675 307.292,360.767 307.310,360.978 307.642 C 361.143 307.903,361.596 308.166,361.984 308.225 C 362.372 308.284,363.064 308.578,363.522 308.878 C 363.979 309.178,364.449 309.329,364.564 309.214 C 364.679 309.099,364.983 309.303,365.239 309.669 C 365.495 310.034,365.921 310.333,366.186 310.333 C 366.450 310.333,366.667 310.483,366.667 310.667 C 366.667 310.850,366.868 311.000,367.113 311.000 C 367.661 311.000,368.426 309.420,368.119 308.924 C 367.977 308.693,368.056 308.662,368.338 308.837 C 368.662 309.036,368.721 308.956,368.560 308.537 C 368.440 308.223,368.478 308.050,368.645 308.153 C 368.812 308.256,369.214 307.739,369.538 307.004 C 369.863 306.268,370.233 305.667,370.362 305.667 C 370.490 305.667,370.685 305.434,370.794 305.149 C 370.925 304.809,370.851 304.703,370.580 304.841 C 370.352 304.956,370.458 304.813,370.814 304.525 C 371.400 304.049,371.406 304.000,370.877 304.000 C 370.557 304.000,370.377 303.866,370.478 303.702 C 370.631 303.454,370.154 303.126,369.333 302.914 C 369.242 302.890,368.881 302.605,368.533 302.280 C 368.184 301.955,367.782 301.762,367.639 301.850 C 367.496 301.939,367.284 301.856,367.167 301.667 C 367.050 301.477,366.830 301.399,366.679 301.493 C 366.527 301.586,366.311 301.422,366.198 301.127 C 366.069 300.793,365.748 300.655,365.345 300.760 C 364.990 300.853,364.648 300.778,364.586 300.592 C 364.525 300.407,363.879 300.220,363.151 300.176 C 362.423 300.132,361.455 299.978,361.001 299.834 C 360.082 299.542,356.205 299.388,355.167 299.601 M296.080 318.076 L 296.167 336.167 302.000 336.167 L 307.833 336.167 307.833 318.167 L 307.833 300.167 301.914 300.076 L 295.994 299.985 296.080 318.076 M392.140 315.833 C 392.140 319.500,392.188 321.045,392.248 319.268 C 392.308 317.490,392.308 314.490,392.249 312.601 C 392.189 310.712,392.140 312.167,392.140 315.833 M326.916 332.083 C 326.858 334.329,326.811 332.492,326.811 328.000 C 326.811 323.508,326.858 321.671,326.916 323.917 C 326.973 326.162,326.973 329.837,326.916 332.083 M189.666 374.083 L 189.666 399.167 195.847 399.167 L 202.028 399.167 201.930 389.615 C 201.877 384.361,201.917 380.115,202.020 380.178 C 202.122 380.242,203.045 380.328,204.071 380.369 C 205.467 380.426,205.893 380.557,205.766 380.889 C 205.672 381.133,205.747 381.333,205.932 381.333 C 206.117 381.333,206.429 381.795,206.625 382.358 C 206.854 383.013,207.125 383.295,207.376 383.140 C 207.619 382.990,207.681 383.040,207.539 383.270 C 207.264 383.715,208.531 386.333,209.021 386.333 C 209.209 386.333,209.332 386.521,209.295 386.750 C 209.185 387.437,209.711 388.345,210.086 388.113 C 210.304 387.979,210.336 388.060,210.170 388.328 C 210.000 388.603,210.192 388.992,210.702 389.408 C 211.141 389.765,211.313 389.961,211.083 389.843 C 210.854 389.724,210.667 389.786,210.667 389.980 C 210.667 390.174,210.781 390.333,210.920 390.333 C 211.059 390.333,211.370 390.649,211.611 391.035 C 211.974 391.616,211.973 391.692,211.608 391.478 C 211.365 391.335,211.429 391.519,211.750 391.886 C 212.071 392.252,212.333 392.700,212.333 392.880 C 212.333 393.060,212.671 393.570,213.083 394.013 C 213.496 394.455,213.796 394.859,213.750 394.909 C 213.501 395.181,213.719 395.674,214.008 395.495 C 214.196 395.379,214.328 395.407,214.302 395.559 C 214.162 396.365,214.405 397.068,215.000 397.577 C 215.367 397.891,215.667 398.377,215.667 398.657 C 215.667 399.098,216.610 399.167,222.667 399.167 C 226.517 399.167,229.667 399.054,229.667 398.917 C 229.667 398.779,229.517 398.667,229.333 398.667 C 229.150 398.667,229.000 398.496,229.000 398.287 C 229.000 398.078,228.737 397.708,228.417 397.464 C 227.999 397.147,227.963 397.018,228.291 397.011 C 228.658 397.002,228.667 396.902,228.336 396.504 C 228.110 396.231,227.781 396.096,227.607 396.204 C 227.432 396.312,227.317 396.198,227.351 395.950 C 227.470 395.078,227.330 394.630,227.000 394.833 C 226.817 394.947,226.667 394.855,226.667 394.629 C 226.667 394.404,226.404 393.919,226.083 393.552 C 225.651 393.058,225.629 392.950,226.000 393.134 C 226.444 393.355,226.444 393.334,226.000 392.940 C 225.725 392.697,225.450 392.275,225.390 392.002 C 225.329 391.729,225.162 391.430,225.018 391.336 C 224.874 391.243,224.657 390.847,224.535 390.455 C 224.413 390.064,223.879 389.290,223.349 388.735 C 222.819 388.180,222.472 387.639,222.579 387.532 C 222.686 387.425,222.547 387.074,222.271 386.752 C 221.994 386.430,221.671 385.895,221.553 385.562 C 221.435 385.230,221.183 385.053,220.994 385.170 C 220.805 385.287,220.684 385.259,220.724 385.108 C 220.867 384.579,220.282 383.325,219.980 383.512 C 219.812 383.616,219.753 383.497,219.848 383.248 C 220.058 382.702,218.876 381.243,218.504 381.589 C 218.360 381.724,218.315 381.608,218.405 381.333 C 218.494 381.058,218.290 380.476,217.950 380.038 C 217.107 378.951,217.230 377.846,218.132 378.417 C 218.204 378.462,218.595 378.200,219.000 377.833 C 219.405 377.467,219.833 377.167,219.952 377.167 C 220.070 377.167,220.129 377.054,220.083 376.917 C 220.038 376.779,220.113 376.696,220.250 376.733 C 220.824 376.884,222.000 376.251,222.000 375.791 C 222.000 375.518,222.150 375.387,222.333 375.500 C 222.517 375.613,222.667 375.472,222.667 375.186 C 222.667 374.901,222.835 374.704,223.042 374.750 C 223.248 374.796,223.492 374.625,223.585 374.370 C 223.698 374.060,223.612 373.994,223.325 374.172 C 223.044 374.345,222.979 374.304,223.135 374.052 C 223.266 373.840,223.605 373.667,223.889 373.667 C 224.218 373.667,224.333 373.480,224.206 373.149 C 224.097 372.865,224.140 372.714,224.302 372.814 C 224.634 373.019,225.141 372.055,225.038 371.417 C 225.001 371.188,225.127 371.000,225.319 371.000 C 225.510 371.000,225.667 370.775,225.667 370.500 C 225.667 370.225,225.854 369.998,226.083 369.995 C 226.361 369.991,226.333 369.882,226.000 369.667 C 225.657 369.445,225.633 369.342,225.923 369.338 C 226.214 369.335,226.277 369.057,226.124 368.450 C 225.954 367.770,226.003 367.629,226.341 367.838 C 226.657 368.033,226.721 367.957,226.571 367.565 C 226.456 367.266,226.506 366.933,226.681 366.824 C 226.857 366.716,226.998 366.449,226.995 366.230 C 226.992 365.992,226.861 366.033,226.667 366.333 C 226.473 366.634,226.342 366.675,226.338 366.436 C 226.336 366.218,226.486 365.945,226.672 365.830 C 226.858 365.715,226.914 365.463,226.795 365.271 C 226.452 364.717,226.371 362.317,226.702 362.522 C 227.181 362.818,227.046 362.046,226.462 361.155 C 226.166 360.703,226.077 360.333,226.264 360.333 C 226.492 360.333,226.486 359.949,226.246 359.167 C 226.049 358.525,225.688 358.000,225.444 358.000 C 224.993 358.000,224.875 357.637,224.983 356.581 C 225.016 356.259,224.808 355.905,224.521 355.795 C 224.235 355.685,224.000 355.413,224.000 355.191 C 224.000 354.825,222.281 353.096,222.083 353.263 C 222.037 353.302,222.037 353.254,222.083 353.157 C 222.200 352.911,219.274 351.281,219.074 351.481 C 218.984 351.571,218.538 351.352,218.083 350.994 C 217.628 350.635,217.113 350.430,216.940 350.537 C 216.766 350.644,216.339 350.473,215.990 350.158 C 215.624 349.826,215.068 349.658,214.677 349.761 C 214.257 349.870,214.081 349.806,214.214 349.591 C 214.352 349.368,214.054 349.299,213.381 349.397 C 212.805 349.482,212.333 349.427,212.333 349.276 C 212.333 349.124,207.233 349.000,201.000 349.000 L 189.667 349.000 189.666 374.083 M387.889 349.222 C 387.767 349.344,387.667 353.458,387.667 358.363 L 387.667 367.282 386.670 366.286 C 386.099 365.714,385.508 365.392,385.286 365.530 C 385.043 365.679,384.987 365.625,385.135 365.385 C 385.276 365.157,385.161 365.000,384.853 365.000 C 384.567 365.000,384.333 364.883,384.333 364.740 C 384.333 364.532,382.797 363.737,382.000 363.533 C 381.908 363.509,381.653 363.375,381.432 363.235 C 381.211 363.094,380.611 363.071,380.099 363.183 C 379.453 363.325,379.306 363.289,379.622 363.067 C 380.050 362.766,378.621 362.569,376.500 362.636 C 376.133 362.648,375.346 362.655,374.750 362.652 C 374.091 362.648,373.665 362.813,373.662 363.073 C 373.658 363.372,373.559 363.350,373.333 363.000 C 373.099 362.637,373.009 362.619,373.005 362.936 C 373.002 363.176,372.841 363.274,372.646 363.154 C 372.451 363.033,372.014 363.186,371.674 363.493 C 371.335 363.800,370.782 364.013,370.445 363.965 C 369.598 363.845,366.838 365.227,365.742 366.321 C 363.175 368.883,361.929 370.495,363.052 369.802 C 363.292 369.653,363.346 369.710,363.195 369.954 C 363.062 370.169,362.814 370.258,362.644 370.152 C 362.473 370.047,362.333 370.195,362.333 370.480 C 362.333 370.766,362.198 371.000,362.033 371.000 C 361.663 371.000,360.979 372.868,361.249 373.138 C 361.357 373.246,361.253 373.333,361.020 373.333 C 360.779 373.333,360.679 373.550,360.787 373.833 C 360.893 374.108,360.818 374.333,360.621 374.333 C 360.423 374.333,360.345 374.549,360.446 374.812 C 360.547 375.075,360.484 375.339,360.306 375.398 C 360.128 375.457,359.960 376.360,359.933 377.403 C 359.906 378.447,359.759 379.224,359.608 379.131 C 359.457 379.037,359.333 379.120,359.333 379.314 C 359.333 379.508,359.458 379.667,359.611 379.667 C 359.764 379.667,359.889 379.885,359.889 380.152 C 359.889 380.419,359.770 380.564,359.626 380.475 C 359.481 380.385,359.443 380.804,359.541 381.406 C 359.640 382.008,359.727 383.287,359.736 384.250 C 359.744 385.212,359.893 386.000,360.066 386.000 C 360.239 386.000,360.355 386.337,360.324 386.750 C 360.292 387.162,360.364 387.800,360.484 388.167 C 360.603 388.533,360.656 388.939,360.600 389.069 C 360.545 389.199,360.800 389.547,361.167 389.844 C 361.533 390.140,361.656 390.294,361.439 390.186 C 361.185 390.058,361.223 390.345,361.549 390.998 C 361.826 391.553,362.201 391.915,362.382 391.803 C 362.563 391.691,362.673 391.802,362.627 392.050 C 362.493 392.765,363.955 394.911,364.712 395.108 C 365.091 395.207,365.312 395.432,365.203 395.607 C 364.767 396.314,371.265 399.955,372.072 399.456 C 372.216 399.367,372.333 399.432,372.333 399.601 C 372.333 400.223,381.193 399.898,381.909 399.249 C 382.264 398.928,382.654 398.766,382.777 398.888 C 382.900 399.011,383.000 398.911,383.000 398.667 C 383.000 398.422,383.094 398.316,383.208 398.430 C 383.502 398.724,385.620 397.543,387.000 396.315 C 387.642 395.744,387.979 395.374,387.750 395.492 C 387.521 395.610,387.333 395.547,387.333 395.353 C 387.333 395.159,387.558 395.000,387.833 395.000 C 388.224 395.000,388.333 395.454,388.333 397.083 L 388.333 399.167 394.000 399.167 L 399.667 399.167 399.667 374.083 L 399.667 349.000 393.889 349.000 C 390.711 349.000,388.011 349.100,387.889 349.222 M209.466 358.389 C 209.304 358.650,209.467 358.695,210.917 358.787 C 211.542 358.827,214.000 361.069,214.000 361.600 C 214.000 361.775,214.210 362.092,214.466 362.305 C 214.731 362.525,214.852 362.994,214.746 363.398 C 214.604 363.942,214.670 364.039,215.031 363.821 C 215.401 363.598,215.421 363.640,215.125 364.019 C 214.600 364.693,214.364 366.665,214.808 366.672 C 215.050 366.675,215.045 366.756,214.792 366.922 C 214.586 367.056,214.099 367.692,213.710 368.333 C 213.321 368.975,213.002 369.365,213.001 369.199 C 213.001 369.033,212.722 369.218,212.383 369.610 C 212.043 370.001,211.693 370.249,211.604 370.160 C 211.516 370.071,210.751 370.207,209.906 370.461 C 209.060 370.716,208.286 370.841,208.184 370.740 C 208.083 370.638,207.998 370.768,207.995 371.028 C 207.991 371.419,207.941 371.422,207.704 371.049 C 207.484 370.703,207.259 370.683,206.731 370.966 C 205.845 371.439,202.333 371.451,202.333 370.980 C 202.333 370.786,202.183 370.720,202.000 370.833 C 201.782 370.968,201.667 368.827,201.667 364.657 L 201.667 358.274 205.302 358.387 C 207.302 358.449,208.883 358.412,208.817 358.306 C 208.750 358.199,208.908 358.111,209.167 358.111 C 209.426 358.111,209.560 358.236,209.466 358.389 M250.298 362.480 C 250.217 362.561,249.367 362.663,248.409 362.706 C 247.451 362.750,246.667 362.904,246.667 363.049 C 246.667 363.194,246.440 363.225,246.162 363.119 C 245.885 363.012,245.473 363.076,245.246 363.259 C 245.019 363.443,244.404 363.591,243.879 363.588 C 243.354 363.586,242.808 363.771,242.666 364.001 C 242.524 364.231,242.250 364.321,242.058 364.202 C 241.865 364.083,241.586 364.203,241.437 364.469 C 241.162 364.961,241.067 365.000,240.147 365.000 C 239.861 365.000,239.719 365.148,239.831 365.330 C 239.948 365.518,239.814 365.574,239.517 365.461 C 239.233 365.351,239.000 365.428,239.000 365.631 C 239.000 365.834,238.776 366.000,238.503 366.000 C 238.229 366.000,237.818 366.300,237.589 366.667 C 237.360 367.033,236.994 367.333,236.776 367.333 C 236.557 367.333,236.283 367.633,236.167 368.000 C 236.050 368.367,235.758 368.667,235.517 368.667 C 234.935 368.667,233.498 370.596,233.210 371.764 C 233.084 372.275,232.837 372.605,232.661 372.496 C 232.485 372.388,232.426 372.521,232.531 372.793 C 232.635 373.065,232.393 373.731,231.992 374.273 C 231.591 374.815,231.200 375.838,231.122 376.546 C 231.044 377.254,230.918 378.433,230.841 379.167 C 230.765 379.900,230.683 380.500,230.658 380.500 C 230.633 380.500,230.585 381.137,230.551 381.917 C 230.517 382.696,230.566 383.334,230.661 383.335 C 230.756 383.336,230.859 384.032,230.890 384.882 C 230.921 385.732,231.076 386.519,231.235 386.631 C 231.393 386.742,231.524 387.058,231.525 387.333 C 231.531 388.217,232.378 390.345,232.656 390.173 C 232.804 390.082,232.904 390.268,232.879 390.587 C 232.853 390.918,233.030 391.125,233.291 391.070 C 233.582 391.008,233.677 391.159,233.551 391.486 C 233.433 391.794,233.536 392.000,233.807 392.000 C 234.056 392.000,234.238 392.262,234.213 392.583 C 234.187 392.907,234.363 393.126,234.608 393.075 C 234.851 393.025,234.977 393.101,234.888 393.245 C 234.692 393.561,235.192 394.216,236.480 395.333 C 237.008 395.792,237.325 395.942,237.184 395.667 C 237.042 395.392,237.313 395.617,237.785 396.167 C 238.257 396.717,238.648 397.054,238.655 396.917 C 238.661 396.779,238.981 396.981,239.364 397.364 C 239.771 397.771,240.322 397.993,240.686 397.898 C 241.047 397.804,241.280 397.896,241.239 398.118 C 241.198 398.333,241.564 398.492,242.074 398.482 C 242.573 398.472,242.908 398.537,242.818 398.626 C 242.729 398.716,243.146 399.008,243.744 399.277 C 244.857 399.775,255.333 400.169,255.333 399.713 C 255.333 399.596,255.708 399.469,256.167 399.431 C 257.716 399.301,258.000 399.223,258.000 398.925 C 258.000 398.761,258.147 398.718,258.326 398.829 C 258.506 398.940,258.993 398.842,259.410 398.611 C 260.170 398.188,260.368 398.119,261.020 398.042 C 261.214 398.019,261.290 397.866,261.189 397.702 C 261.087 397.538,261.389 397.308,261.859 397.190 C 262.329 397.072,263.147 396.531,263.679 395.988 C 264.210 395.445,264.799 395.000,264.989 395.000 C 265.178 395.000,265.333 394.766,265.333 394.480 C 265.333 394.195,265.467 394.043,265.630 394.144 C 265.793 394.244,266.325 393.803,266.813 393.163 C 267.301 392.524,267.589 392.000,267.453 392.000 C 267.317 392.000,267.482 391.798,267.821 391.551 C 268.208 391.268,268.336 390.940,268.166 390.666 C 267.998 390.393,268.028 390.311,268.247 390.447 C 268.439 390.566,268.686 390.431,268.795 390.147 C 268.908 389.852,268.852 389.719,268.663 389.836 C 268.065 390.205,268.320 389.448,269.002 388.831 C 269.370 388.499,269.596 388.152,269.505 388.060 C 269.414 387.969,269.473 387.731,269.637 387.531 C 270.079 386.990,270.190 385.898,269.857 385.365 C 269.644 385.026,269.683 384.971,269.997 385.165 C 270.323 385.366,270.388 385.215,270.261 384.550 C 270.168 384.064,270.186 383.667,270.301 383.667 C 270.415 383.667,270.508 382.780,270.508 381.696 C 270.508 380.613,270.393 379.796,270.254 379.883 C 270.114 379.969,270.000 379.797,270.000 379.500 C 270.000 379.203,270.148 379.052,270.330 379.164 C 270.657 379.366,270.623 379.115,270.152 377.833 C 269.852 377.015,269.656 376.026,269.639 375.243 C 269.632 374.897,269.473 374.747,269.257 374.881 C 269.018 375.028,268.961 374.915,269.096 374.564 C 269.211 374.265,269.094 373.808,268.835 373.549 C 268.577 373.291,268.460 372.985,268.576 372.869 C 268.691 372.753,268.459 372.216,268.060 371.676 C 267.660 371.136,267.333 370.513,267.333 370.291 C 267.333 370.070,267.242 369.980,267.131 370.091 C 266.878 370.344,266.020 369.583,266.208 369.272 C 266.529 368.740,261.742 365.000,260.741 365.000 C 260.502 365.000,259.873 364.680,259.344 364.288 C 258.762 363.859,258.107 363.648,257.690 363.757 C 257.311 363.856,257.000 363.819,257.000 363.674 C 257.000 363.530,256.700 363.333,256.333 363.237 C 255.967 363.141,255.667 363.209,255.667 363.388 C 255.667 363.568,255.431 363.479,255.143 363.190 C 254.554 362.602,254.187 362.493,254.500 363.000 C 254.613 363.183,254.547 363.333,254.353 363.333 C 254.159 363.333,254.000 363.205,254.000 363.047 C 254.000 362.890,253.397 362.795,252.659 362.837 C 251.922 362.878,251.238 362.782,251.140 362.623 C 250.947 362.312,250.536 362.242,250.298 362.480 M340.195 362.621 C 340.082 362.804,339.617 362.886,339.161 362.804 C 338.706 362.721,338.333 362.802,338.333 362.983 C 338.333 363.164,338.120 363.231,337.860 363.131 C 337.600 363.031,336.968 363.223,336.456 363.558 C 335.888 363.930,335.634 363.992,335.803 363.717 C 336.029 363.351,335.947 363.338,335.364 363.650 C 334.970 363.861,334.717 364.145,334.801 364.281 C 334.885 364.417,334.652 364.551,334.284 364.579 C 333.410 364.645,332.616 365.315,332.889 365.756 C 333.014 365.958,332.941 366.003,332.715 365.863 C 332.480 365.718,332.099 366.024,331.747 366.643 C 331.428 367.204,331.045 367.663,330.897 367.665 C 330.749 367.666,330.714 367.806,330.819 367.977 C 330.925 368.148,330.858 368.381,330.672 368.497 C 330.384 368.675,330.251 368.410,330.255 367.667 C 330.256 367.575,330.365 367.144,330.497 366.708 C 330.662 366.166,330.622 365.988,330.369 366.145 C 329.901 366.434,329.900 366.143,330.367 365.270 C 331.379 363.379,330.422 363.000,324.638 363.000 C 321.750 363.000,319.188 363.077,318.944 363.170 C 318.580 363.310,318.516 366.582,318.589 381.254 L 318.678 399.167 324.589 399.167 L 330.500 399.167 330.500 389.948 C 330.500 384.879,330.387 380.800,330.250 380.885 C 330.112 380.970,330.000 380.889,330.000 380.706 C 330.000 380.523,330.146 380.282,330.325 380.172 C 330.504 380.061,330.598 379.524,330.535 378.979 C 330.471 378.433,330.563 377.897,330.739 377.789 C 330.914 377.680,330.985 377.314,330.897 376.975 C 330.808 376.635,330.945 376.184,331.201 375.971 C 331.457 375.759,331.667 375.384,331.667 375.138 C 331.667 374.891,331.978 374.523,332.359 374.319 C 332.752 374.109,332.974 373.745,332.871 373.478 C 332.772 373.220,332.798 373.031,332.929 373.059 C 333.185 373.113,334.849 372.728,335.667 372.426 C 336.502 372.117,337.313 372.097,337.132 372.390 C 337.038 372.542,337.203 372.667,337.500 372.667 C 337.839 372.667,337.949 372.512,337.796 372.250 C 337.662 372.021,337.840 372.073,338.193 372.366 C 338.905 372.958,340.027 373.469,340.426 373.383 C 340.569 373.352,340.779 373.591,340.893 373.914 C 341.008 374.236,341.282 374.725,341.504 375.000 C 342.004 375.622,342.378 377.067,341.974 376.817 C 341.810 376.716,341.753 377.053,341.845 377.567 C 341.938 378.080,342.063 378.800,342.124 379.167 C 342.184 379.533,342.336 380.067,342.461 380.352 C 342.586 380.637,342.646 384.943,342.594 389.921 L 342.500 398.971 348.116 399.069 C 351.204 399.123,353.800 399.056,353.883 398.920 C 354.151 398.485,353.934 374.332,353.660 374.163 C 353.515 374.073,353.466 373.733,353.551 373.406 C 353.636 373.080,353.523 372.368,353.300 371.823 C 353.076 371.279,352.927 370.631,352.969 370.383 C 353.011 370.136,352.886 370.031,352.693 370.151 C 352.486 370.278,352.416 370.173,352.523 369.894 C 352.623 369.633,352.461 369.175,352.162 368.876 C 351.863 368.578,351.723 368.333,351.850 368.333 C 351.978 368.333,351.895 368.108,351.667 367.833 C 351.438 367.558,351.383 367.329,351.543 367.324 C 351.979 367.311,348.646 364.425,347.676 363.978 C 347.213 363.764,346.573 363.456,346.255 363.294 C 345.458 362.889,345.249 362.925,345.544 363.417 C 345.723 363.714,345.637 363.706,345.245 363.388 C 344.943 363.143,344.516 363.054,344.296 363.189 C 344.044 363.346,343.984 363.295,344.135 363.052 C 344.301 362.782,343.923 362.667,342.880 362.667 C 342.059 362.667,341.166 362.581,340.894 362.477 C 340.623 362.373,340.308 362.438,340.195 362.621 M276.223 363.222 C 275.863 363.582,275.976 389.000,276.338 389.000 C 276.507 389.000,276.562 389.218,276.460 389.484 C 276.358 389.750,276.385 390.148,276.521 390.367 C 276.657 390.587,276.816 391.306,276.875 391.965 C 276.934 392.624,277.223 393.339,277.517 393.553 C 277.976 393.889,278.198 394.406,278.308 395.396 C 278.353 395.806,280.154 397.615,280.626 397.726 C 280.879 397.785,281.443 398.179,281.879 398.601 C 282.315 399.024,282.828 399.273,283.017 399.156 C 283.207 399.039,283.574 399.118,283.833 399.333 C 284.092 399.548,284.461 399.627,284.652 399.509 C 284.843 399.391,285.000 399.442,285.000 399.623 C 285.000 400.583,293.118 399.871,294.824 398.761 C 295.186 398.526,295.753 398.333,296.085 398.333 C 296.416 398.333,296.774 398.108,296.879 397.833 C 296.985 397.558,297.318 397.331,297.619 397.328 C 298.094 397.324,298.101 397.280,297.667 397.000 C 297.239 396.724,297.251 396.676,297.750 396.672 C 298.071 396.669,298.333 396.517,298.333 396.333 C 298.333 396.150,298.558 396.000,298.833 396.000 C 299.208 396.000,299.333 396.398,299.334 397.583 L 299.334 399.167 305.084 399.167 L 310.833 399.167 310.744 381.075 L 310.655 362.984 304.911 363.075 L 299.167 363.167 299.044 373.333 C 298.889 386.238,298.927 385.784,297.883 387.378 C 297.397 388.120,297.000 388.888,297.000 389.085 C 297.000 389.283,296.903 389.347,296.784 389.228 C 296.665 389.109,296.290 389.332,295.951 389.724 C 295.560 390.174,295.333 390.270,295.333 389.984 C 295.333 389.651,295.236 389.631,294.959 389.907 C 294.754 390.113,294.354 390.192,294.071 390.084 C 293.734 389.954,293.640 390.021,293.798 390.277 C 294.086 390.743,293.691 390.777,293.009 390.346 C 292.685 390.141,292.429 390.171,292.259 390.434 C 292.066 390.732,291.917 390.706,291.672 390.333 C 291.491 390.058,291.341 389.957,291.338 390.107 C 291.336 390.258,291.098 390.145,290.810 389.857 C 290.521 389.569,290.071 389.333,289.810 389.333 C 289.548 389.333,289.333 389.124,289.333 388.869 C 289.333 388.614,289.099 388.315,288.812 388.205 C 288.526 388.095,288.377 387.866,288.481 387.697 C 288.586 387.528,288.515 386.977,288.323 386.473 C 288.111 385.916,287.947 381.163,287.904 374.361 L 287.833 363.167 282.146 363.076 C 279.019 363.026,276.353 363.091,276.223 363.222 M154.250 392.061 C 154.196 395.969,154.153 392.867,154.153 385.167 C 154.152 377.467,154.196 374.269,154.250 378.061 C 154.303 381.853,154.303 388.153,154.250 392.061 M252.492 372.333 C 253.154 372.333,253.930 372.521,254.218 372.750 C 255.430 373.715,257.503 375.838,257.545 376.156 C 257.570 376.345,257.607 376.696,257.628 376.936 C 257.649 377.178,257.839 377.266,258.052 377.135 C 258.291 376.987,258.346 377.043,258.196 377.286 C 258.064 377.500,258.174 378.114,258.442 378.651 C 258.710 379.188,258.841 379.715,258.733 379.823 C 258.401 380.155,258.374 381.000,258.696 381.000 C 258.863 381.000,259.000 381.159,259.000 381.353 C 259.000 381.547,258.835 381.604,258.633 381.479 C 258.373 381.318,258.364 381.435,258.605 381.885 C 258.825 382.296,258.831 382.719,258.622 383.092 C 258.445 383.408,258.387 383.667,258.492 383.667 C 258.597 383.667,258.449 384.121,258.162 384.676 C 257.874 385.232,257.729 385.832,257.839 386.010 C 257.949 386.188,257.880 386.333,257.686 386.333 C 257.492 386.333,257.371 386.521,257.417 386.750 C 257.462 386.979,257.313 387.129,257.083 387.083 C 256.854 387.037,256.667 387.171,256.667 387.380 C 256.667 387.589,256.404 387.975,256.083 388.238 C 255.732 388.526,255.699 388.619,256.000 388.471 C 256.294 388.327,256.386 388.352,256.222 388.530 C 256.069 388.697,255.844 388.841,255.722 388.850 C 255.027 388.901,254.015 389.421,254.158 389.653 C 254.251 389.802,254.140 389.918,253.913 389.910 C 252.620 389.863,251.650 390.037,251.805 390.287 C 252.055 390.692,249.554 390.573,249.255 390.167 C 249.102 389.958,249.008 389.986,249.005 390.239 C 249.002 390.504,248.597 390.407,247.833 389.956 C 247.192 389.577,246.667 389.346,246.667 389.441 C 246.667 389.536,246.067 389.038,245.333 388.333 C 244.600 387.629,244.000 386.909,244.000 386.734 C 244.000 386.558,243.768 386.223,243.485 385.987 C 243.201 385.752,243.047 385.359,243.141 385.113 C 243.235 384.868,243.197 384.667,243.056 384.667 C 242.915 384.667,242.781 384.329,242.757 383.917 C 242.609 381.297,242.632 379.660,242.821 379.353 C 242.941 379.159,242.862 379.000,242.646 379.000 C 242.355 379.000,242.362 378.867,242.673 378.492 C 242.905 378.213,243.005 377.894,242.895 377.784 C 242.785 377.674,243.077 377.084,243.543 376.473 C 244.009 375.862,244.306 375.226,244.203 375.059 C 243.950 374.649,244.873 373.919,246.574 373.183 C 247.348 372.848,247.920 372.474,247.845 372.352 C 247.770 372.231,248.149 372.162,248.688 372.199 C 249.227 372.237,249.752 372.132,249.854 371.966 C 249.963 371.790,250.300 371.804,250.665 371.999 C 251.008 372.183,251.831 372.333,252.492 372.333 M380.672 371.882 C 380.675 371.609,380.747 371.605,380.922 371.866 C 381.056 372.068,381.537 372.203,381.991 372.166 C 382.444 372.130,383.019 372.304,383.268 372.553 C 383.517 372.802,383.851 372.926,384.010 372.827 C 384.170 372.729,384.457 372.942,384.650 373.301 C 384.842 373.661,385.302 374.051,385.671 374.168 C 386.041 374.285,386.258 374.519,386.154 374.688 C 386.049 374.856,386.342 375.372,386.804 375.834 C 387.335 376.365,387.565 376.876,387.432 377.225 C 387.298 377.573,387.352 377.694,387.579 377.554 C 387.801 377.417,387.878 377.561,387.781 377.933 C 387.695 378.263,387.840 379.161,388.104 379.928 C 388.369 380.695,388.472 381.252,388.335 381.167 C 388.197 381.082,387.982 381.786,387.856 382.731 C 387.731 383.676,387.482 384.723,387.302 385.058 C 387.066 385.499,387.094 385.674,387.405 385.693 C 387.742 385.714,387.744 385.755,387.415 385.888 C 387.184 385.981,387.095 386.217,387.216 386.413 C 387.346 386.624,387.279 386.672,387.051 386.531 C 386.816 386.386,386.538 386.627,386.341 387.147 C 386.163 387.616,385.880 388.000,385.714 388.000 C 385.547 388.000,385.332 388.301,385.236 388.668 C 385.120 389.114,384.885 389.268,384.531 389.132 C 384.239 389.020,384.000 389.095,384.000 389.298 C 384.000 389.501,383.813 389.629,383.583 389.583 C 383.354 389.538,383.198 389.670,383.237 389.878 C 383.284 390.127,382.898 390.201,382.114 390.096 C 381.275 389.983,380.990 390.048,381.155 390.314 C 381.313 390.570,381.137 390.641,380.611 390.533 C 380.183 390.444,379.233 390.262,378.500 390.128 C 377.767 389.995,377.092 389.868,377.000 389.847 C 376.215 389.665,374.346 388.515,374.195 388.120 C 374.090 387.847,373.854 387.718,373.669 387.832 C 373.484 387.946,373.333 387.722,373.333 387.333 C 373.333 386.945,373.183 386.720,373.000 386.833 C 372.815 386.948,372.666 386.698,372.665 386.270 C 372.665 385.846,372.387 385.045,372.047 384.488 C 371.509 383.606,371.467 383.138,371.717 380.822 C 371.874 379.361,372.039 377.768,372.084 377.281 C 372.128 376.794,372.278 376.466,372.418 376.552 C 372.557 376.638,372.774 376.437,372.900 376.104 C 373.026 375.772,373.327 375.300,373.568 375.056 C 373.809 374.813,373.921 374.475,373.817 374.306 C 373.713 374.138,373.900 374.000,374.233 374.000 C 374.567 374.000,375.035 373.687,375.273 373.305 C 375.518 372.914,375.915 372.691,376.184 372.794 C 376.447 372.895,376.846 372.780,377.071 372.539 C 377.296 372.298,377.771 372.177,378.126 372.270 C 378.524 372.374,378.688 372.304,378.554 372.088 C 378.408 371.851,378.713 371.823,379.502 372.001 C 380.307 372.182,380.668 372.145,380.672 371.882 " stroke="none" fill="#241c24" fill-rule="evenodd"></path><path id="path1" d="M69.917 17.174 C 69.762 17.985,69.793 18.016,70.276 17.534 C 70.654 17.156,70.702 16.902,70.446 16.646 C 70.189 16.389,70.038 16.540,69.917 17.174 M61.333 37.893 C 60.594 38.675,60.580 38.732,61.211 38.397 C 61.602 38.189,62.010 37.789,62.117 37.509 C 62.378 36.828,62.307 36.863,61.333 37.893 M91.080 46.833 C 91.216 46.983,91.157 47.310,90.950 47.561 C 90.742 47.811,90.656 48.100,90.759 48.203 C 90.862 48.306,91.109 48.087,91.307 47.715 C 91.577 47.211,91.563 46.980,91.251 46.800 C 91.021 46.668,90.945 46.683,91.080 46.833 M31.700 64.798 C 30.803 65.267,30.382 65.657,30.616 65.802 C 30.827 65.933,31.000 65.880,31.000 65.686 C 31.000 65.492,31.188 65.330,31.417 65.326 C 31.646 65.322,32.208 65.025,32.667 64.667 C 33.749 63.820,33.504 63.853,31.700 64.798 M58.629 83.741 C 58.247 84.457,58.261 84.472,58.862 84.011 C 59.213 83.742,59.547 83.495,59.606 83.461 C 59.664 83.428,59.559 83.306,59.372 83.191 C 59.186 83.076,58.851 83.323,58.629 83.741 M41.667 92.631 C 41.667 92.855,41.553 92.969,41.413 92.883 C 41.273 92.796,40.861 92.953,40.496 93.231 C 39.857 93.717,39.864 93.727,40.667 93.497 C 41.676 93.208,42.203 92.759,41.894 92.450 C 41.769 92.325,41.667 92.406,41.667 92.631 M28.000 189.750 C 28.000 189.887,36.137 189.966,46.083 189.924 C 56.029 189.883,61.317 189.808,57.833 189.758 C 41.560 189.527,28.000 189.523,28.000 189.750 M6.167 217.908 C 22.440 218.140,36.000 218.144,36.000 217.917 C 36.000 217.779,27.863 217.701,17.917 217.742 C 7.971 217.784,2.683 217.859,6.167 217.908 M289.505 286.325 C 289.185 286.843,289.369 295.667,289.700 295.667 C 289.865 295.667,290.000 293.492,290.000 290.833 C 290.000 286.171,289.940 285.622,289.505 286.325 M383.433 290.582 C 385.046 290.643,387.596 290.643,389.100 290.581 C 390.603 290.519,389.283 290.469,386.167 290.470 C 383.050 290.470,381.820 290.521,383.433 290.582 M380.132 295.333 C 380.132 297.992,380.184 299.079,380.248 297.750 C 380.311 296.421,380.311 294.246,380.248 292.917 C 380.184 291.587,380.132 292.675,380.132 295.333 M391.797 295.667 C 391.797 298.142,391.850 299.154,391.914 297.917 C 391.978 296.679,391.978 294.654,391.914 293.417 C 391.850 292.179,391.797 293.192,391.797 295.667 M274.917 295.583 C 277.529 295.639,281.804 295.639,284.417 295.583 C 287.029 295.526,284.892 295.480,279.667 295.480 C 274.442 295.480,272.304 295.526,274.917 295.583 M336.543 299.736 C 336.771 300.105,337.667 300.067,337.667 299.687 C 337.667 299.515,337.377 299.397,337.023 299.423 C 336.669 299.450,336.453 299.591,336.543 299.736 M332.830 300.005 C 332.715 300.192,332.458 300.244,332.259 300.121 C 332.043 299.987,331.993 300.052,332.135 300.283 C 332.359 300.644,333.667 300.251,333.667 299.822 C 333.667 299.529,333.039 299.667,332.830 300.005 M399.665 304.765 L 399.830 309.167 399.926 305.027 C 399.978 302.751,399.904 300.770,399.761 300.626 C 399.617 300.482,399.574 302.345,399.665 304.765 M375.060 304.730 C 375.027 307.057,375.113 309.031,375.250 309.116 C 375.387 309.202,375.460 307.973,375.411 306.386 C 375.246 301.060,375.121 300.469,375.060 304.730 M339.306 303.750 C 339.137 304.257,339.164 305.392,339.352 305.696 C 339.483 305.909,339.576 305.539,339.558 304.875 C 339.531 303.861,339.425 303.390,339.306 303.750 M354.860 308.260 L 354.220 309.167 355.110 308.359 C 356.045 307.509,356.160 307.327,355.750 307.344 C 355.613 307.350,355.212 307.762,354.860 308.260 M379.919 313.916 C 380.079 323.015,380.199 323.880,380.266 316.417 C 380.303 312.337,380.221 309.000,380.083 308.999 C 379.946 308.999,379.872 311.212,379.919 313.916 M391.889 309.222 C 391.581 309.530,391.608 322.257,391.917 322.449 C 392.054 322.534,392.123 319.668,392.069 316.080 C 391.994 311.027,392.069 309.495,392.403 309.283 C 392.647 309.129,392.677 309.008,392.472 309.005 C 392.274 309.002,392.011 309.100,391.889 309.222 M274.917 317.249 C 277.346 317.306,281.321 317.306,283.750 317.249 C 286.179 317.192,284.192 317.146,279.333 317.146 C 274.475 317.146,272.487 317.192,274.917 317.249 M326.811 328.000 C 326.811 332.492,326.858 334.329,326.916 332.083 C 326.973 329.837,326.973 326.162,326.916 323.917 C 326.858 321.671,326.811 323.508,326.811 328.000 M351.617 327.837 C 352.415 328.293,353.138 328.667,353.225 328.667 C 353.583 328.667,352.431 327.795,351.568 327.413 C 350.040 326.737,350.065 326.950,351.617 327.837 M359.083 328.116 C 358.488 328.311,358.000 328.592,358.000 328.740 C 358.000 328.888,358.555 328.777,359.233 328.494 C 361.258 327.647,361.173 327.430,359.083 328.116 M366.520 334.177 C 366.164 334.446,366.014 334.672,366.186 334.678 C 366.359 334.685,366.125 334.905,365.667 335.167 C 365.208 335.429,364.966 335.648,365.127 335.655 C 365.700 335.678,367.668 334.272,367.482 333.972 C 367.251 333.597,367.301 333.586,366.520 334.177 M352.210 336.596 C 352.121 336.740,352.450 336.889,352.941 336.926 C 353.628 336.978,353.718 336.919,353.333 336.668 C 352.722 336.271,352.423 336.252,352.210 336.596 M356.267 337.067 C 356.578 337.378,356.756 337.378,357.067 337.067 C 357.378 336.756,357.289 336.667,356.667 336.667 C 356.044 336.667,355.956 336.756,356.267 337.067 M216.174 350.345 C 216.299 350.547,216.601 350.635,216.846 350.541 C 217.091 350.447,217.713 350.686,218.229 351.072 L 219.167 351.774 218.480 351.043 C 217.760 350.276,215.757 349.670,216.174 350.345 M201.806 364.667 C 201.806 368.242,201.855 369.704,201.915 367.917 C 201.975 366.129,201.975 363.204,201.915 361.417 C 201.855 359.629,201.806 361.092,201.806 364.667 M226.495 363.684 C 226.618 365.496,227.000 365.792,227.000 364.075 C 227.000 363.322,226.866 362.623,226.702 362.522 C 226.538 362.420,226.444 362.943,226.495 363.684 M310.822 381.000 C 310.822 390.992,310.865 395.079,310.916 390.083 C 310.968 385.087,310.968 376.912,310.916 371.917 C 310.865 366.921,310.822 371.008,310.822 381.000 M371.333 363.278 C 371.333 363.492,371.042 363.667,370.686 363.667 C 370.330 363.667,369.960 363.795,369.863 363.952 C 369.766 364.109,370.060 364.166,370.515 364.079 C 371.380 363.913,371.876 363.431,371.533 363.089 C 371.423 362.979,371.333 363.064,371.333 363.278 M226.624 365.750 C 226.436 366.118,226.477 367.333,226.677 367.333 C 226.816 367.333,226.908 366.958,226.881 366.500 C 226.839 365.758,226.751 365.502,226.624 365.750 M331.067 367.067 C 330.847 367.287,330.664 367.324,330.662 367.150 C 330.659 366.976,330.523 367.045,330.359 367.303 C 330.007 367.859,330.270 368.745,330.707 368.475 C 330.874 368.372,330.925 368.148,330.819 367.977 C 330.714 367.806,330.770 367.667,330.945 367.667 C 331.119 367.667,331.348 367.442,331.454 367.167 C 331.686 366.562,331.595 366.539,331.067 367.067 M225.693 370.417 C 225.679 370.738,225.517 371.000,225.333 371.000 C 225.150 371.000,225.000 371.182,225.000 371.405 C 225.000 371.667,225.190 371.620,225.539 371.271 C 225.835 370.975,225.997 370.530,225.898 370.283 C 225.776 369.975,225.711 370.017,225.693 370.417 M87.276 370.917 C 99.619 370.965,119.719 370.965,131.943 370.917 C 144.166 370.868,134.067 370.829,109.500 370.829 C 84.933 370.829,74.933 370.868,87.276 370.917 M202.333 371.000 C 202.333 371.185,203.216 371.333,204.314 371.333 C 205.403 371.333,206.387 371.183,206.500 371.000 C 206.629 370.791,205.892 370.667,204.520 370.667 C 203.284 370.667,202.333 370.812,202.333 371.000 M154.222 371.222 C 153.918 371.527,153.949 398.738,154.255 399.218 C 154.390 399.430,154.500 393.168,154.500 385.302 C 154.500 377.436,154.487 371.000,154.472 371.000 C 154.457 371.000,154.344 371.100,154.222 371.222 M232.437 372.647 C 232.043 373.577,231.862 374.252,232.033 374.147 C 232.431 373.901,233.381 371.642,233.250 371.251 C 233.196 371.088,232.830 371.716,232.437 372.647 M382.217 372.228 C 381.991 372.453,383.751 373.333,384.427 373.333 C 384.958 373.333,384.395 372.882,383.746 372.786 C 383.434 372.740,383.126 372.545,383.062 372.351 C 382.928 371.950,382.550 371.894,382.217 372.228 M244.468 374.382 C 243.838 375.092,243.838 375.094,244.565 374.713 C 245.375 374.288,245.874 373.667,245.405 373.667 C 245.239 373.667,244.818 373.988,244.468 374.382 M341.371 375.630 C 341.570 376.201,341.846 376.738,341.985 376.824 C 342.428 377.098,341.945 375.369,341.467 374.973 C 341.083 374.654,341.067 374.760,341.371 375.630 M270.156 379.034 C 270.034 379.419,270.063 379.863,270.221 380.021 C 270.382 380.182,270.526 379.873,270.548 379.321 C 270.596 378.159,270.464 378.062,270.156 379.034 M342.000 389.600 L 342.000 399.333 347.750 399.259 L 353.500 399.184 348.000 399.084 L 342.500 398.985 342.594 389.770 C 342.655 383.759,342.568 380.435,342.344 380.210 C 342.108 379.974,342.000 382.913,342.000 389.600 M268.831 389.002 C 268.499 389.370,268.305 389.750,268.401 389.846 C 268.498 389.942,268.825 389.641,269.129 389.177 C 269.794 388.163,269.661 388.085,268.831 389.002 M277.418 394.012 C 277.643 394.372,277.936 394.667,278.070 394.667 C 278.473 394.667,277.983 393.732,277.479 393.538 C 277.092 393.390,277.082 393.473,277.418 394.012 M298.333 396.309 C 298.333 396.479,298.071 396.686,297.750 396.770 C 297.258 396.899,297.251 396.929,297.709 396.961 C 298.008 396.983,298.438 396.775,298.667 396.500 C 298.953 396.155,298.966 396.000,298.707 396.000 C 298.502 396.000,298.333 396.139,298.333 396.309 M280.597 398.063 C 281.010 398.476,282.391 398.696,282.153 398.310 C 282.043 398.134,281.814 398.075,281.644 398.181 C 281.473 398.286,281.333 398.239,281.333 398.075 C 281.333 397.912,281.103 397.778,280.822 397.778 C 280.538 397.778,280.438 397.905,280.597 398.063 M193.083 399.248 C 194.688 399.309,197.313 399.309,198.917 399.248 C 200.521 399.187,199.208 399.137,196.000 399.137 C 192.792 399.137,191.479 399.187,193.083 399.248 M219.417 399.249 C 221.204 399.308,224.129 399.308,225.917 399.249 C 227.704 399.189,226.242 399.140,222.667 399.140 C 219.092 399.140,217.629 399.189,219.417 399.249 M302.250 399.248 C 303.762 399.310,306.237 399.310,307.750 399.248 C 309.262 399.186,308.025 399.136,305.000 399.136 C 301.975 399.136,300.737 399.186,302.250 399.248 M321.917 399.248 C 323.429 399.310,325.904 399.310,327.417 399.248 C 328.929 399.186,327.692 399.136,324.667 399.136 C 321.642 399.136,320.404 399.186,321.917 399.248 M391.417 399.248 C 392.837 399.310,395.162 399.310,396.583 399.248 C 398.004 399.185,396.842 399.134,394.000 399.134 C 391.158 399.134,389.996 399.185,391.417 399.248 " stroke="none" fill="#241c1c" fill-rule="evenodd"></path><path id="path2" d="M265.940 285.916 C 270.398 285.969,277.598 285.969,281.940 285.916 C 286.281 285.864,282.633 285.821,273.833 285.821 C 265.033 285.821,261.481 285.864,265.940 285.916 M270.138 301.500 C 270.138 304.800,270.188 306.105,270.249 304.400 C 270.309 302.695,270.309 299.995,270.248 298.400 C 270.187 296.805,270.137 298.200,270.138 301.500 M270.147 326.833 C 270.147 332.150,270.193 334.278,270.249 331.563 C 270.305 328.848,270.305 324.498,270.249 321.896 C 270.193 319.295,270.147 321.517,270.147 326.833 M194.583 348.916 C 197.196 348.972,201.471 348.972,204.083 348.916 C 206.696 348.860,204.558 348.814,199.333 348.814 C 194.108 348.814,191.971 348.860,194.583 348.916 M390.750 348.915 C 392.354 348.976,394.979 348.976,396.583 348.915 C 398.188 348.854,396.875 348.804,393.667 348.804 C 390.458 348.804,389.146 348.854,390.750 348.915 M298.818 363.421 C 298.729 363.652,298.696 368.190,298.745 373.504 L 298.834 383.167 299.000 373.083 C 299.092 367.537,299.124 363.000,299.073 363.000 C 299.021 363.000,298.906 363.189,298.818 363.421 M318.489 381.500 C 318.489 391.400,318.531 395.402,318.583 390.393 C 318.635 385.384,318.635 377.284,318.583 372.393 C 318.531 367.502,318.489 371.600,318.489 381.500 M330.479 390.167 C 330.479 395.117,330.525 397.188,330.582 394.770 C 330.639 392.352,330.639 388.302,330.583 385.770 C 330.526 383.238,330.479 385.217,330.479 390.167 M65.750 399.583 C 82.021 399.631,108.646 399.631,124.917 399.583 C 141.188 399.535,127.875 399.496,95.333 399.496 C 62.792 399.496,49.479 399.535,65.750 399.583 " stroke="none" fill="#281c24" fill-rule="evenodd"></path><path id="path3" d="M265.940 285.916 C 270.398 285.969,277.598 285.969,281.940 285.916 C 286.281 285.864,282.633 285.821,273.833 285.821 C 265.033 285.821,261.481 285.864,265.940 285.916 M270.138 301.500 C 270.138 304.800,270.188 306.105,270.249 304.400 C 270.309 302.695,270.309 299.995,270.248 298.400 C 270.187 296.805,270.137 298.200,270.138 301.500 M270.147 326.833 C 270.147 332.150,270.193 334.278,270.249 331.563 C 270.305 328.848,270.305 324.498,270.249 321.896 C 270.193 319.295,270.147 321.517,270.147 326.833 M194.583 348.916 C 197.196 348.972,201.471 348.972,204.083 348.916 C 206.696 348.860,204.558 348.814,199.333 348.814 C 194.108 348.814,191.971 348.860,194.583 348.916 M390.750 348.915 C 392.354 348.976,394.979 348.976,396.583 348.915 C 398.188 348.854,396.875 348.804,393.667 348.804 C 390.458 348.804,389.146 348.854,390.750 348.915 M298.818 363.421 C 298.729 363.652,298.696 368.190,298.745 373.504 L 298.834 383.167 299.000 373.083 C 299.092 367.537,299.124 363.000,299.073 363.000 C 299.021 363.000,298.906 363.189,298.818 363.421 M318.489 381.500 C 318.489 391.400,318.531 395.402,318.583 390.393 C 318.635 385.384,318.635 377.284,318.583 372.393 C 318.531 367.502,318.489 371.600,318.489 381.500 M330.479 390.167 C 330.479 395.117,330.525 397.188,330.582 394.770 C 330.639 392.352,330.639 388.302,330.583 385.770 C 330.526 383.238,330.479 385.217,330.479 390.167 M65.750 399.583 C 82.021 399.631,108.646 399.631,124.917 399.583 C 141.188 399.535,127.875 399.496,95.333 399.496 C 62.792 399.496,49.479 399.535,65.750 399.583 " stroke="none" fill="#281c24" fill-rule="evenodd"></path><path id="path4" d="M265.940 285.916 C 270.398 285.969,277.598 285.969,281.940 285.916 C 286.281 285.864,282.633 285.821,273.833 285.821 C 265.033 285.821,261.481 285.864,265.940 285.916 M270.138 301.500 C 270.138 304.800,270.188 306.105,270.249 304.400 C 270.309 302.695,270.309 299.995,270.248 298.400 C 270.187 296.805,270.137 298.200,270.138 301.500 M270.147 326.833 C 270.147 332.150,270.193 334.278,270.249 331.563 C 270.305 328.848,270.305 324.498,270.249 321.896 C 270.193 319.295,270.147 321.517,270.147 326.833 M194.583 348.916 C 197.196 348.972,201.471 348.972,204.083 348.916 C 206.696 348.860,204.558 348.814,199.333 348.814 C 194.108 348.814,191.971 348.860,194.583 348.916 M390.750 348.915 C 392.354 348.976,394.979 348.976,396.583 348.915 C 398.188 348.854,396.875 348.804,393.667 348.804 C 390.458 348.804,389.146 348.854,390.750 348.915 M298.818 363.421 C 298.729 363.652,298.696 368.190,298.745 373.504 L 298.834 383.167 299.000 373.083 C 299.092 367.537,299.124 363.000,299.073 363.000 C 299.021 363.000,298.906 363.189,298.818 363.421 M318.489 381.500 C 318.489 391.400,318.531 395.402,318.583 390.393 C 318.635 385.384,318.635 377.284,318.583 372.393 C 318.531 367.502,318.489 371.600,318.489 381.500 M330.479 390.167 C 330.479 395.117,330.525 397.188,330.582 394.770 C 330.639 392.352,330.639 388.302,330.583 385.770 C 330.526 383.238,330.479 385.217,330.479 390.167 M65.750 399.583 C 82.021 399.631,108.646 399.631,124.917 399.583 C 141.188 399.535,127.875 399.496,95.333 399.496 C 62.792 399.496,49.479 399.535,65.750 399.583 " stroke="none" fill="#281c24" fill-rule="evenodd"></path></g></svg>