<svg xmlns="http://www.w3.org/2000/svg" viewBox="0 0 297 39.1"><path d="M143.35,76.9l-3.84-6.64c1.81-3.38,1.79-7.42,1.79-12.58,0-6.65,0-11.45-3.84-15.34a14.94,14.94,0,0,0-20.79,0c-3.89,3.89-3.78,8.69-3.78,15.34s-.11,11.44,3.78,15.33a14,14,0,0,0,10.42,4.22,16.28,16.28,0,0,0,3.28-.33Zm-21.12-8.42c-1.46-1.62-1.83-3.41-1.83-10.8s.37-9.19,1.83-10.81a6.37,6.37,0,0,1,4.86-2,6.24,6.24,0,0,1,4.81,2c1.46,1.62,1.89,3.41,1.89,10.81s-.43,9.18-1.89,10.8a6.24,6.24,0,0,1-4.81,2A6.37,6.37,0,0,1,122.23,68.48Z" transform="translate(-38.45 -38.13)" fill="#a8a39e"/><path d="M231.2,76.89V38.45h7.42V76.89Z" transform="translate(-38.45 -38.13)" fill="#a8a39e"/><path d="M52.49,77.23c-5.83,0-10.26-1.25-14-5.08l4.86-4.86c2.43,2.43,5.73,3.24,9.29,3.24,4.43,0,6.8-1.68,6.8-4.75a4.27,4.27,0,0,0-1.18-3.24,5.69,5.69,0,0,0-3.41-1.35l-4.64-.65c-3.3-.49-5.73-1.51-7.45-3.19A10.14,10.14,0,0,1,40,49.79c0-6.86,5.08-11.66,13.4-11.66,5.29,0,9.12,1.29,12.42,4.48L61,47.31c-2.43-2.33-5.34-2.65-7.88-2.65-4,0-5.94,2.21-5.94,4.86a3.73,3.73,0,0,0,1.13,2.76,6.68,6.68,0,0,0,3.57,1.51l4.53.65c3.51.48,5.73,1.45,7.35,3,2,1.94,3,4.75,3,8.15C66.75,73,60.54,77.23,52.49,77.23Z" transform="translate(-38.45 -38.13)" fill="#a8a39e"/><path d="M77.73,76.9V38.45h25.33v6.7H85.24v9h15.18v6.69H85.24V70.2h17.82v6.7Z" transform="translate(-38.45 -38.13)" fill="#a8a39e"/><path d="M166.77,77.23c-7.89,0-14.15-5.35-14.15-13.51V38.45h7.51v25c0,4.43,2.59,7.08,6.64,7.08s6.69-2.65,6.69-7.08v-25h7.46V63.72C180.92,71.88,174.65,77.23,166.77,77.23Z" transform="translate(-38.45 -38.13)" fill="#a8a39e"/><path d="M216.35,73a14.91,14.91,0,0,1-20.79,0c-3.89-3.89-3.78-8.69-3.78-15.33s-.11-11.45,3.78-15.34a14.94,14.94,0,0,1,20.79,0c3.89,3.89,3.83,8.69,3.83,15.34S220.24,69.12,216.35,73Zm-5.56-26.14a6.26,6.26,0,0,0-4.81-2,6.37,6.37,0,0,0-4.86,2c-1.46,1.62-1.84,3.41-1.84,10.81s.38,9.18,1.84,10.8a6.37,6.37,0,0,0,4.86,2,6.26,6.26,0,0,0,4.81-2c1.46-1.62,1.89-3.41,1.89-10.8S212.25,48.49,210.79,46.87Z" transform="translate(-38.45 -38.13)" fill="#a8a39e"/><path d="M274,76.9l-2.26-6.8H258l-2.32,6.8h-7.83l14-38.45h5.88L281.8,76.9Zm-9-27.11-4.86,14h9.56Z" transform="translate(-38.45 -38.13)" fill="#a8a39e"/><rect x="287.39" y="0.32" width="9.61" height="9.61" fill="#00a071"/><polygon points="263.36 30.57 263.36 0.32 258.55 0.32 258.55 35.38 263.36 30.57" fill="#00a071"/><polygon points="266.75 33.97 261.95 38.77 297 38.77 297 33.97 266.75 33.97" fill="#00a071"/><polygon points="272.97 20.96 272.97 0.32 268.16 0.32 268.16 25.76 272.97 20.96" fill="#00a071"/><polygon points="276.37 24.36 271.56 29.16 297 29.16 297 24.36 276.37 24.36" fill="#00a071"/><polygon points="282.58 11.35 282.58 0.32 277.77 0.32 277.77 16.15 282.58 11.35" fill="#00a071"/><polygon points="285.98 14.74 281.17 19.55 297 19.55 297 14.74 285.98 14.74" fill="#00a071"/></svg>